<svg width="25" height="20" viewBox="0 0 25 20" fill="none" xmlns="http://www.w3.org/2000/svg">
<path d="M12.5311 14.011C10.183 14.011 8.28228 12.5488 8.10737 10.6958L4.86001 8.67667C4.43312 9.10754 4.04028 9.56306 3.72328 10.0612C3.65246 10.1739 3.61557 10.2984 3.61557 10.4247C3.61557 10.551 3.65246 10.6755 3.72328 10.7882C5.40206 13.4234 8.72558 15.2064 12.5311 15.2064C13.3641 15.2064 14.1678 15.1068 14.9423 14.9459L13.336 13.946C13.0707 13.9872 12.8013 14.0089 12.5311 14.011ZM22.2459 15.458L18.8237 13.33C19.8632 12.6252 20.7182 11.7611 21.3389 10.7879C21.4097 10.6752 21.4466 10.5507 21.4466 10.4244C21.4466 10.2981 21.4097 10.1736 21.3389 10.0609C19.6601 7.42566 16.3366 5.64267 12.5311 5.64267C10.9373 5.64422 9.36936 5.96703 7.97054 6.58161L4.03223 4.13264C3.98087 4.10049 3.92214 4.0768 3.8594 4.06291C3.79666 4.04903 3.73113 4.04523 3.66656 4.05173C3.60199 4.05823 3.53964 4.0749 3.48309 4.10079C3.42653 4.12668 3.37687 4.16129 3.33694 4.20263L2.72926 4.83199C2.64865 4.91542 2.61252 5.0212 2.62884 5.12605C2.64515 5.2309 2.71256 5.32625 2.81625 5.39112L21.03 16.7165C21.0813 16.7486 21.14 16.7723 21.2028 16.7862C21.2655 16.8001 21.3311 16.8039 21.3956 16.7974C21.4602 16.7909 21.5225 16.7742 21.5791 16.7483C21.6357 16.7224 21.6853 16.6878 21.7252 16.6465L22.3332 16.0171C22.4138 15.9336 22.4499 15.8279 22.4335 15.723C22.4171 15.6181 22.3497 15.5228 22.2459 15.458ZM16.5586 11.9214L15.342 11.1647C15.4444 10.9265 15.4988 10.6766 15.5029 10.4245C15.509 10.0555 15.4074 9.69048 15.2062 9.35877C15.0051 9.02707 14.7101 8.73793 14.3449 8.51459C13.9797 8.29125 13.5545 8.13994 13.1034 8.0728C12.6523 8.00566 12.1879 8.02456 11.7476 8.128C11.9342 8.33151 12.0352 8.57767 12.0358 8.83059C12.0312 8.91475 12.0152 8.99826 11.9881 9.07965L9.70938 7.66277C10.5009 7.13058 11.4995 6.83875 12.5311 6.83814C13.1166 6.83788 13.6964 6.93046 14.2374 7.11061C14.7784 7.29075 15.2699 7.55491 15.6839 7.88799C16.0979 8.22107 16.4263 8.61654 16.6502 9.05178C16.8741 9.48702 16.9892 9.9535 16.9889 10.4245C16.9889 10.9633 16.8251 11.4654 16.5586 11.9216V11.9214Z" fill="#9FA2B4"/>
</svg>
