<svg width="638" height="394" viewBox="0 0 638 394" fill="none" xmlns="http://www.w3.org/2000/svg">
<path d="M571.76 119.54C571.76 119.352 571.835 119.171 571.968 119.038C572.101 118.905 572.282 118.83 572.47 118.83C572.658 118.83 572.839 118.905 572.972 119.038C573.105 119.171 573.18 119.352 573.18 119.54V122.73C573.18 122.823 573.162 122.916 573.126 123.002C573.09 123.088 573.038 123.166 572.972 123.232C572.906 123.298 572.828 123.35 572.742 123.386C572.656 123.422 572.563 123.44 572.47 123.44C572.377 123.44 572.284 123.422 572.198 123.386C572.112 123.35 572.034 123.298 571.968 123.232C571.902 123.166 571.85 123.088 571.814 123.002C571.778 122.916 571.76 122.823 571.76 122.73V119.54ZM566.93 122.13C566.816 121.994 566.758 121.82 566.766 121.643C566.774 121.466 566.848 121.299 566.973 121.173C567.099 121.048 567.266 120.974 567.443 120.966C567.62 120.958 567.794 121.016 567.93 121.13L570.19 123.39C570.32 123.524 570.392 123.703 570.392 123.89C570.392 124.076 570.32 124.256 570.19 124.39C570.055 124.517 569.876 124.588 569.69 124.588C569.504 124.588 569.325 124.517 569.19 124.39L566.93 122.13ZM565.34 127.39C565.247 127.39 565.154 127.372 565.068 127.336C564.982 127.3 564.904 127.248 564.838 127.182C564.772 127.116 564.72 127.038 564.684 126.952C564.648 126.866 564.63 126.773 564.63 126.68C564.63 126.587 564.648 126.494 564.684 126.408C564.72 126.322 564.772 126.244 564.838 126.178C564.904 126.112 564.982 126.06 565.068 126.024C565.154 125.988 565.247 125.97 565.34 125.97H568.53C568.718 125.97 568.899 126.045 569.032 126.178C569.165 126.311 569.24 126.492 569.24 126.68C569.24 126.868 569.165 127.049 569.032 127.182C568.899 127.315 568.718 127.39 568.53 127.39H565.34ZM567.93 132.22C567.865 132.286 567.787 132.339 567.701 132.375C567.615 132.411 567.523 132.43 567.43 132.43C567.337 132.43 567.245 132.411 567.159 132.375C567.073 132.339 566.995 132.286 566.93 132.22C566.862 132.156 566.808 132.078 566.771 131.992C566.734 131.906 566.716 131.813 566.716 131.72C566.716 131.626 566.734 131.534 566.771 131.448C566.808 131.362 566.862 131.284 566.93 131.22L569.18 128.96C569.244 128.892 569.322 128.838 569.408 128.801C569.494 128.764 569.586 128.745 569.68 128.745C569.774 128.745 569.866 128.764 569.952 128.801C570.038 128.838 570.116 128.892 570.18 128.96C570.31 129.094 570.382 129.273 570.382 129.46C570.382 129.646 570.31 129.826 570.18 129.96L567.93 132.22ZM573.18 133.81C573.18 133.903 573.162 133.996 573.126 134.082C573.09 134.168 573.038 134.246 572.972 134.312C572.906 134.378 572.828 134.43 572.742 134.466C572.656 134.502 572.563 134.52 572.47 134.52C572.377 134.52 572.284 134.502 572.198 134.466C572.112 134.43 572.034 134.378 571.968 134.312C571.902 134.246 571.85 134.168 571.814 134.082C571.778 133.996 571.76 133.903 571.76 133.81V130.62C571.76 130.432 571.835 130.251 571.968 130.118C572.101 129.985 572.282 129.91 572.47 129.91C572.658 129.91 572.839 129.985 572.972 130.118C573.105 130.251 573.18 130.432 573.18 130.62V133.81ZM578.02 131.23C578.134 131.366 578.192 131.54 578.184 131.717C578.176 131.894 578.102 132.061 577.977 132.187C577.851 132.312 577.684 132.386 577.507 132.394C577.33 132.402 577.156 132.343 577.02 132.23L574.76 130C574.693 129.935 574.641 129.857 574.605 129.771C574.568 129.685 574.55 129.593 574.55 129.5C574.55 129.407 574.568 129.315 574.605 129.229C574.641 129.143 574.693 129.065 574.76 129C574.824 128.931 574.901 128.876 574.987 128.838C575.073 128.8 575.166 128.781 575.26 128.781C575.354 128.781 575.447 128.8 575.533 128.838C575.619 128.876 575.696 128.931 575.76 129L578.02 131.23ZM579.61 125.97C579.703 125.97 579.796 125.988 579.882 126.024C579.968 126.06 580.046 126.112 580.112 126.178C580.178 126.244 580.23 126.322 580.266 126.408C580.302 126.494 580.32 126.587 580.32 126.68C580.32 126.773 580.302 126.866 580.266 126.952C580.23 127.038 580.178 127.116 580.112 127.182C580.046 127.248 579.968 127.3 579.882 127.336C579.796 127.372 579.703 127.39 579.61 127.39H576.41C576.222 127.39 576.041 127.315 575.908 127.182C575.775 127.049 575.7 126.868 575.7 126.68C575.7 126.492 575.775 126.311 575.908 126.178C576.041 126.045 576.222 125.97 576.41 125.97H579.61ZM577.01 121.13C577.146 121.016 577.32 120.958 577.497 120.966C577.674 120.974 577.841 121.048 577.967 121.173C578.092 121.299 578.166 121.466 578.174 121.643C578.182 121.82 578.124 121.994 578.01 122.13L575.75 124.39C575.616 124.519 575.437 124.592 575.25 124.592C575.063 124.592 574.884 124.519 574.75 124.39C574.683 124.325 574.631 124.247 574.595 124.161C574.558 124.075 574.54 123.983 574.54 123.89C574.54 123.797 574.558 123.705 574.595 123.619C574.631 123.533 574.683 123.455 574.75 123.39L577.01 121.13Z" fill="#8B77E6"/>
<path fill-rule="evenodd" clip-rule="evenodd" d="M113.38 0.219971C92.4051 0.280665 72.3067 8.64052 57.476 23.473C42.6454 38.3056 34.2881 58.405 34.23 79.38C34.2933 100.351 42.653 120.446 57.4831 135.274C72.3131 150.102 92.4085 158.459 113.38 158.52C117.589 158.533 121.622 160.212 124.598 163.189C127.573 166.167 129.249 170.201 129.26 174.41C129.249 178.618 127.573 182.651 124.597 185.627C121.621 188.603 117.588 190.279 113.38 190.29H72C61.7663 190.319 51.96 194.397 44.7236 201.634C37.4872 208.87 33.409 218.676 33.38 228.91C33.4117 239.142 37.491 248.946 44.7271 256.18C51.9632 263.414 61.768 267.491 72 267.52C80.8475 267.546 89.325 271.073 95.5812 277.329C101.837 283.585 105.364 292.062 105.39 300.91C105.435 317.057 111.868 332.53 123.285 343.948C134.702 355.366 150.173 361.802 166.32 361.85H524C544.974 361.787 565.071 353.426 579.901 338.594C594.731 323.762 603.089 303.664 603.15 282.69C603.087 261.718 594.727 241.622 579.898 226.792C565.068 211.963 544.972 203.603 524 203.54H468.15C463.942 203.527 459.909 201.85 456.932 198.875C453.955 195.9 452.276 191.868 452.26 187.66C452.273 183.45 453.952 179.416 456.929 176.439C459.906 173.462 463.94 171.783 468.15 171.77H482.33C492.561 171.741 502.365 167.664 509.599 160.429C516.834 153.195 520.911 143.391 520.94 133.16C520.911 122.939 516.842 113.145 509.621 105.912C502.399 98.6789 492.611 94.5948 482.39 94.55H478.3C469.452 94.5236 460.973 90.9976 454.715 84.7417C448.458 78.4859 444.929 70.0084 444.9 61.16C444.855 45.0184 438.426 29.5501 427.016 18.1325C415.606 6.71488 400.142 0.275378 384 0.219971H113.38Z" fill="#D1D2FD"/>
<path fill-rule="evenodd" clip-rule="evenodd" d="M572.47 172.78C580.038 172.782 587.436 170.54 593.729 166.337C600.022 162.134 604.927 156.159 607.825 149.168C610.722 142.177 611.481 134.484 610.006 127.062C608.531 119.64 604.888 112.821 599.537 107.47C594.187 102.118 587.37 98.4729 579.948 96.9959C572.526 95.5188 564.833 96.2759 557.841 99.1714C550.849 102.067 544.873 106.971 540.669 113.263C536.464 119.555 534.22 126.952 534.22 134.52C534.219 139.544 535.207 144.519 537.129 149.161C539.05 153.803 541.868 158.02 545.42 161.573C548.972 165.126 553.189 167.945 557.83 169.867C562.471 171.79 567.446 172.78 572.47 172.78Z" fill="#D1D2FD"/>
<path d="M165.18 43.36H128.12V54.59H165.18V43.36Z" fill="#BBBBF6"/>
<path d="M110.15 56.85H73.08V68.08H110.15V56.85Z" fill="#BBBBF6"/>
<path d="M148.97 56.85H111.91V68.08H148.97V56.85Z" fill="#BBBBF6"/>
<path d="M126.35 70.3199H89.29V81.5499H126.35V70.3199Z" fill="#BBBBF6"/>
<path d="M110.15 83.8H73.08V95.03H110.15V83.8Z" fill="#BBBBF6"/>
<path d="M148.97 83.8H111.91V95.03H148.97V83.8Z" fill="#BBBBF6"/>
<path d="M189.22 289.86H152.15V301.08H189.22V289.86Z" fill="#BBBBF6"/>
<path d="M228.06 289.86H190.99V301.08H228.06V289.86Z" fill="#BBBBF6"/>
<path d="M173.01 303.34H135.95V314.57H173.01V303.34Z" fill="#BBBBF6"/>
<path d="M211.84 303.34H174.78V314.57H211.84V303.34Z" fill="#BBBBF6"/>
<path d="M228.06 316.82H190.99V328.05H228.06V316.82Z" fill="#BBBBF6"/>
<path d="M173.01 330.29H135.95V341.52H173.01V330.29Z" fill="#BBBBF6"/>
<path d="M211.84 330.29H174.78V341.52H211.84V330.29Z" fill="#BBBBF6"/>
<path fill-rule="evenodd" clip-rule="evenodd" d="M215.13 34.3199H378.29C380.294 34.3279 382.214 35.1283 383.63 36.5465C385.047 37.9647 385.845 39.8856 385.85 41.8899V274.6H391.65C392.997 274.605 394.288 275.143 395.24 276.097C396.192 277.051 396.727 278.343 396.73 279.69V300.47C396.725 301.815 396.187 303.103 395.236 304.053C394.284 305.003 392.995 305.537 391.65 305.54H201.76C200.416 305.537 199.128 305.002 198.178 304.052C197.228 303.102 196.693 301.814 196.69 300.47V279.69C196.693 278.344 197.227 277.054 198.177 276.101C199.126 275.147 200.414 274.608 201.76 274.6H207.57V41.8899C207.575 39.8856 208.373 37.9647 209.789 36.5465C211.206 35.1283 213.126 34.3279 215.13 34.3199Z" fill="#BBBBF6"/>
<path fill-rule="evenodd" clip-rule="evenodd" d="M211 32.5699H374.13C376.133 32.5752 378.053 33.3734 379.47 34.7901C380.886 36.2067 381.685 38.1265 381.69 40.1299V276.45C381.685 278.453 380.886 280.373 379.47 281.79C378.053 283.206 376.133 284.005 374.13 284.01H211C208.995 284.007 207.072 283.21 205.654 281.793C204.235 280.376 203.435 278.455 203.43 276.45V40.1299C203.435 38.1248 204.235 36.2034 205.654 34.7865C207.072 33.3696 208.995 32.5726 211 32.5699Z" fill="#F4F5F9"/>
<path d="M367.87 164.06H217.24V262.67H367.87V164.06Z" fill="#645193"/>
<path d="M367.87 46.39H217.24V166.62H367.87V46.39Z" fill="#E6E6F9"/>
<path fill-rule="evenodd" clip-rule="evenodd" d="M232.09 61.24V99.08H285.09V61.24H232.09ZM232.09 113.93V151.77H285.09V113.93H232.09ZM300 151.77H353V113.93H300V151.77ZM353 99.08V61.24H300V99.08H353Z" fill="#7060A0"/>
<path fill-rule="evenodd" clip-rule="evenodd" d="M347 89.76L337.69 99.08H313L344.53 67.54H347V89.76ZM323.75 67.54H334.43L302.9 99.08H300V91.31L323.75 67.54ZM285.12 145.46H266.64L285.12 127V145.46ZM256.51 145.46H245.83L277.36 113.93H285.12V116.85L256.51 145.46ZM322.83 113.93L300 136.78V113.93H322.83Z" fill="#BBBBF6"/>
<path fill-rule="evenodd" clip-rule="evenodd" d="M197.61 272.85H387.5C388.845 272.855 390.133 273.392 391.083 274.344C392.033 275.296 392.567 276.585 392.57 277.93V298.71C392.567 300.055 392.033 301.344 391.083 302.296C390.133 303.247 388.845 303.785 387.5 303.79H197.61C196.264 303.787 194.973 303.251 194.021 302.299C193.069 301.347 192.533 300.056 192.53 298.71V277.93C192.533 276.583 193.069 275.293 194.021 274.341C194.973 273.389 196.264 272.853 197.61 272.85Z" fill="#DEDFFD"/>
<path fill-rule="evenodd" clip-rule="evenodd" d="M297.74 176.52L295.74 176.73H294.53L293.32 176.67L291.38 176.31L280.28 164.96L254.78 176.19C255.56 216.28 251.37 235.08 246.45 262.72H324C324.11 250.81 328.91 233.18 329.91 223.62L334.27 179.32L309.73 166.11L297.74 176.52Z" fill="#443572"/>
<path fill-rule="evenodd" clip-rule="evenodd" d="M302.43 262.68H316.43C318.851 260.539 321.492 258.662 324.31 257.08C325.42 245.75 329.03 231.74 329.89 223.58L330.01 222.32C329.697 219.273 329.363 215.973 329.01 212.42C327.6 199.27 330.66 190.51 333.69 185.3L334.28 179.3L309.74 166.09L305.88 169.48L304.55 175.81C304.55 175.81 317.81 186.05 319.42 191.65C321.03 197.25 315.42 235.78 311.42 252.41C310.42 256.48 307.05 259.88 302.48 262.7L302.43 262.68Z" fill="#31275B"/>
<path fill-rule="evenodd" clip-rule="evenodd" d="M254.84 177.77C255.24 202.39 253.74 218.92 251.35 234.61C251.35 234.61 264.35 185.92 262.93 184.61C261.8 183.61 260.39 182.41 254.84 177.79V177.77Z" fill="#31275B"/>
<path fill-rule="evenodd" clip-rule="evenodd" d="M308.58 163.23C304.432 161.125 299.879 159.94 295.232 159.755C290.584 159.57 285.952 160.391 281.65 162.16L283.05 166.42L306.85 167.36L308.58 163.23Z" fill="#B1AEC1"/>
<path fill-rule="evenodd" clip-rule="evenodd" d="M297.74 176.52L295.74 176.73L293.32 176.63L291.38 176.27L284 168.65L282.83 168.96L280.22 172.13C280.22 172.13 285.35 185.43 285.66 185.88C285.97 186.33 286.55 186.59 287.45 185.59C288.35 184.59 291.13 181.32 291.13 181.32C291.13 181.32 291.94 180.54 292.27 181.48C292.6 182.42 296.68 180.04 296.68 180.04L296.93 180.94C296.93 180.94 297.56 180.22 298.13 181.2C298.7 182.18 301.48 186.41 301.68 186.6C301.88 186.79 302.75 187.44 303.43 186.18C304.11 184.92 311.35 170.18 312.63 167.63L309.73 166.07L297.74 176.52Z" fill="#31275B"/>
<path fill-rule="evenodd" clip-rule="evenodd" d="M297.74 176.52L295.74 176.73L293.32 176.63L291.38 176.27L290.64 175.52L288.9 178.26C288.9 178.26 292.49 179.59 292.36 182.77L285.36 262.68H289.23L296.23 182.93C296.51 179.75 300.04 178.7 300.04 178.7L298.52 175.83L297.74 176.52Z" fill="#31275B"/>
<path fill-rule="evenodd" clip-rule="evenodd" d="M295.87 143.59C298.576 143.707 301.126 144.889 302.963 146.879C304.801 148.868 305.777 151.503 305.68 154.21L305.15 167.73C305.033 170.436 303.851 172.986 301.861 174.823C299.872 176.661 297.237 177.638 294.53 177.54C291.823 177.423 289.272 176.241 287.433 174.252C285.594 172.263 284.615 169.628 284.71 166.92L285.24 153.41C285.357 150.702 286.54 148.149 288.531 146.31C290.523 144.47 293.161 143.492 295.87 143.59Z" fill="#E76D60"/>
<path fill-rule="evenodd" clip-rule="evenodd" d="M292.23 175.36L293.41 175.22C293.56 175.416 293.644 175.654 293.65 175.9C293.65 176.32 293.65 177.56 293.65 177.56C293.21 177.7 290.9 178.08 290.99 177.75C290.99 177.67 292.24 175.36 292.24 175.36H292.23Z" fill="#31275B"/>
<path fill-rule="evenodd" clip-rule="evenodd" d="M297 175.55L295.84 175.31C295.677 175.495 295.576 175.725 295.55 175.97C295.5 176.39 295.42 177.63 295.42 177.63C295.84 177.98 298.13 178.36 298.07 178.03C298.07 177.96 297 175.55 297 175.55Z" fill="#31275B"/>
<path fill-rule="evenodd" clip-rule="evenodd" d="M308.58 163.23C308.71 163.35 310.06 165.94 310.77 167.23C310.971 167.648 311.081 168.104 311.094 168.567C311.106 169.031 311.019 169.492 310.84 169.92C310.28 171.6 303.16 185.19 303.16 185.19C303.16 185.19 302.66 185.91 301.94 185.19C301.22 184.47 295.83 175.37 295.83 175.37L307.14 164.37C307.67 163.74 308.46 163.19 308.58 163.31V163.23Z" fill="white"/>
<path fill-rule="evenodd" clip-rule="evenodd" d="M281.65 162.16C281.55 162.21 279.96 164.76 279.16 165.95C278.923 166.352 278.775 166.8 278.725 167.264C278.675 167.728 278.724 168.197 278.87 168.64C279.31 170.35 285.33 184.47 285.33 184.47C285.33 184.47 285.77 185.21 286.55 184.52C287.33 183.83 293.41 175.22 293.41 175.22L283 163.33C282.31 162.45 281.73 162.12 281.65 162.16Z" fill="white"/>
<path fill-rule="evenodd" clip-rule="evenodd" d="M275.66 130.84H275.19C273.778 130.933 272.439 131.503 271.394 132.456C270.349 133.41 269.658 134.691 269.437 136.088C269.215 137.486 269.474 138.917 270.173 140.148C270.872 141.378 271.968 142.335 273.282 142.86C274.596 143.386 276.049 143.449 277.404 143.04C278.758 142.631 279.934 141.773 280.737 140.608C281.54 139.443 281.923 138.04 281.824 136.628C281.725 135.217 281.148 133.881 280.19 132.84C280.08 134.69 279.47 136.84 277.11 136.78L277.69 133.23C277.726 132.94 277.702 132.645 277.619 132.365C277.537 132.085 277.397 131.824 277.21 131.6C277.022 131.376 276.79 131.193 276.529 131.062C276.267 130.931 275.982 130.856 275.69 130.84H275.66Z" fill="#E76D60"/>
<path fill-rule="evenodd" clip-rule="evenodd" d="M320.19 137.3L320.63 137.45C321.96 137.938 323.084 138.864 323.818 140.075C324.552 141.287 324.852 142.712 324.668 144.117C324.485 145.522 323.829 146.822 322.808 147.804C321.787 148.787 320.463 149.392 319.052 149.522C317.642 149.652 316.229 149.298 315.046 148.518C313.863 147.738 312.981 146.579 312.545 145.231C312.108 143.884 312.143 142.428 312.644 141.103C313.145 139.777 314.081 138.662 315.3 137.94C314.88 139.74 314.83 142.04 317.13 142.6L317.58 139.03C317.63 138.742 317.737 138.467 317.897 138.222C318.056 137.977 318.264 137.767 318.508 137.605C318.751 137.444 319.025 137.333 319.312 137.28C319.6 137.228 319.895 137.235 320.18 137.3H320.19Z" fill="#E76D60"/>
<path fill-rule="evenodd" clip-rule="evenodd" d="M302.4 103.25C296.8 102.455 291.113 103.907 286.58 107.291C282.048 110.675 279.039 115.715 278.21 121.31L275.42 140.52C274.624 146.121 276.077 151.81 279.461 156.344C282.844 160.878 287.884 163.889 293.48 164.72C299.08 165.515 304.767 164.063 309.3 160.679C313.832 157.295 316.841 152.255 317.67 146.66L320.46 127.45C321.256 121.849 319.803 116.16 316.419 111.626C313.036 107.092 307.996 104.081 302.4 103.25Z" fill="#FCB187"/>
<path fill-rule="evenodd" clip-rule="evenodd" d="M290.5 164.06C291.482 164.354 292.485 164.574 293.5 164.72C299.1 165.515 304.787 164.063 309.32 160.679C313.852 157.295 316.861 152.255 317.69 146.66L320.48 127.45C320.971 124.089 320.646 120.659 319.53 117.45C310.99 114.91 303.72 112.87 303.72 112.87C303.72 112.87 276.81 112.87 279.72 120.28L280.49 121.51C281.399 120.832 282.455 120.379 283.572 120.186C284.69 119.993 285.837 120.066 286.92 120.4C291.04 121.4 304.71 124.96 309.23 126.63C313.75 128.3 314.95 131.63 314.23 136.23C313.51 140.83 314.02 142.59 315.15 143.34C315.15 143.34 313.41 164.07 290.52 164.07L290.5 164.06Z" fill="#F49677"/>
<path fill-rule="evenodd" clip-rule="evenodd" d="M290.27 148.54C290.005 149.98 290.323 151.467 291.153 152.672C291.984 153.878 293.26 154.705 294.7 154.97C296.14 155.235 297.627 154.917 298.833 154.087C300.038 153.256 300.865 151.98 301.13 150.54C301.164 150.294 301.105 150.043 300.965 149.838C300.824 149.633 300.612 149.487 300.37 149.43L291.37 147.76C291.124 147.726 290.873 147.785 290.668 147.925C290.463 148.066 290.317 148.278 290.26 148.52L290.27 148.54Z" fill="white"/>
<path fill-rule="evenodd" clip-rule="evenodd" d="M291.5 153.15C292.246 154.022 293.244 154.639 294.357 154.917C295.47 155.195 296.642 155.119 297.71 154.7C297.558 154.05 297.218 153.459 296.732 153C296.247 152.542 295.638 152.235 294.98 152.12C294.364 151.954 293.714 151.959 293.101 152.135C292.487 152.311 291.934 152.652 291.5 153.12V153.15Z" fill="white"/>
<path fill-rule="evenodd" clip-rule="evenodd" d="M300.48 149.48L292 147.92C291.838 148.304 291.803 148.731 291.902 149.136C292.001 149.541 292.229 149.904 292.55 150.17C293.26 150.55 299.39 151.53 299.91 151.17C300.231 150.677 300.414 150.107 300.44 149.52L300.48 149.48Z" fill="white"/>
<path fill-rule="evenodd" clip-rule="evenodd" d="M308.37 146.37C307.822 146.278 307.258 146.352 306.752 146.58C306.245 146.809 305.818 147.183 305.523 147.655C305.229 148.126 305.081 148.675 305.099 149.23C305.117 149.786 305.299 150.324 305.622 150.776C305.945 151.228 306.396 151.575 306.916 151.771C307.436 151.967 308.003 152.005 308.544 151.879C309.086 151.753 309.578 151.469 309.958 151.063C310.338 150.658 310.589 150.148 310.68 149.6C310.799 148.866 310.623 148.114 310.19 147.509C309.757 146.904 309.103 146.495 308.37 146.37Z" fill="#E76D60"/>
<path fill-rule="evenodd" clip-rule="evenodd" d="M284.54 142.45C283.992 142.359 283.428 142.432 282.922 142.66C282.415 142.889 281.987 143.263 281.693 143.735C281.399 144.206 281.251 144.755 281.269 145.31C281.287 145.866 281.469 146.404 281.792 146.856C282.115 147.309 282.566 147.655 283.086 147.851C283.606 148.047 284.173 148.085 284.714 147.959C285.256 147.833 285.748 147.549 286.128 147.143C286.508 146.738 286.759 146.228 286.85 145.68C286.969 144.946 286.793 144.194 286.36 143.589C285.927 142.984 285.273 142.575 284.54 142.45Z" fill="#E76D60"/>
<path fill-rule="evenodd" clip-rule="evenodd" d="M288.36 140C288.432 139.479 288.295 138.951 287.98 138.53C287.739 138.23 287.417 138.006 287.052 137.884C286.686 137.763 286.294 137.749 285.921 137.845C285.549 137.942 285.212 138.143 284.951 138.426C284.69 138.709 284.516 139.061 284.45 139.44C284.418 139.637 284.31 139.813 284.149 139.931C283.988 140.049 283.787 140.099 283.59 140.07C283.391 140.04 283.211 139.933 283.089 139.773C282.968 139.612 282.914 139.41 282.94 139.21C283.079 138.294 283.571 137.468 284.31 136.91C284.865 136.498 285.529 136.26 286.22 136.225C286.91 136.19 287.595 136.361 288.189 136.715C288.782 137.069 289.258 137.59 289.555 138.214C289.853 138.838 289.959 139.536 289.86 140.22C289.852 140.324 289.823 140.426 289.775 140.518C289.726 140.61 289.659 140.692 289.578 140.757C289.496 140.822 289.402 140.87 289.301 140.898C289.2 140.925 289.095 140.931 288.992 140.916C288.888 140.901 288.789 140.865 288.701 140.81C288.612 140.754 288.536 140.682 288.476 140.596C288.417 140.51 288.376 140.412 288.356 140.31C288.336 140.207 288.337 140.102 288.36 140ZM310.12 143.16C310.161 142.903 310.149 142.64 310.085 142.387C310.022 142.134 309.908 141.897 309.75 141.69C309.436 141.275 308.974 140.999 308.46 140.92C307.94 140.846 307.412 140.979 306.99 141.29C306.567 141.606 306.287 142.077 306.21 142.6C306.18 142.799 306.073 142.977 305.912 143.097C305.751 143.217 305.549 143.269 305.35 143.24C305.151 143.208 304.972 143.099 304.852 142.936C304.732 142.773 304.681 142.57 304.71 142.37C304.776 141.916 304.93 141.48 305.164 141.086C305.399 140.692 305.708 140.348 306.076 140.073C306.443 139.799 306.861 139.6 307.305 139.487C307.749 139.374 308.211 139.349 308.665 139.415C309.119 139.481 309.555 139.635 309.949 139.869C310.343 140.104 310.687 140.413 310.962 140.78C311.236 141.148 311.435 141.565 311.548 142.01C311.661 142.454 311.686 142.916 311.62 143.37C311.607 143.468 311.574 143.562 311.524 143.648C311.474 143.733 311.407 143.807 311.328 143.867C311.249 143.926 311.159 143.97 311.063 143.994C310.968 144.019 310.868 144.024 310.77 144.01C310.671 143.996 310.575 143.963 310.489 143.913C310.402 143.862 310.327 143.795 310.266 143.715C310.206 143.635 310.162 143.544 310.137 143.447C310.112 143.35 310.106 143.249 310.12 143.15V143.16ZM311.78 136.35C311.049 135.812 310.198 135.46 309.301 135.326C308.403 135.192 307.486 135.279 306.63 135.58C306.443 135.657 306.233 135.657 306.046 135.58C305.859 135.503 305.709 135.356 305.63 135.17C305.553 134.983 305.553 134.773 305.63 134.586C305.707 134.399 305.854 134.249 306.04 134.17C307.132 133.772 308.305 133.649 309.456 133.811C310.607 133.973 311.7 134.416 312.64 135.1C312.721 135.156 312.791 135.228 312.845 135.312C312.898 135.395 312.935 135.488 312.952 135.586C312.97 135.683 312.968 135.783 312.947 135.88C312.926 135.977 312.886 136.069 312.83 136.15C312.774 136.231 312.702 136.301 312.618 136.354C312.535 136.408 312.442 136.445 312.344 136.462C312.247 136.48 312.147 136.478 312.05 136.457C311.953 136.436 311.861 136.396 311.78 136.34V136.35ZM284.78 132.44C284.683 132.475 284.58 132.49 284.477 132.484C284.374 132.479 284.273 132.453 284.18 132.409C284.087 132.364 284.004 132.301 283.935 132.224C283.866 132.147 283.814 132.057 283.78 131.96C283.744 131.862 283.728 131.758 283.734 131.654C283.739 131.55 283.765 131.449 283.811 131.355C283.857 131.262 283.921 131.178 284 131.111C284.079 131.043 284.171 130.991 284.27 130.96C285.366 130.574 286.541 130.463 287.69 130.637C288.839 130.812 289.928 131.266 290.86 131.96C290.938 132.026 291.001 132.106 291.048 132.196C291.094 132.287 291.122 132.385 291.131 132.486C291.139 132.588 291.127 132.689 291.096 132.786C291.065 132.883 291.016 132.972 290.95 133.05C290.884 133.127 290.804 133.191 290.714 133.238C290.623 133.284 290.525 133.312 290.424 133.321C290.322 133.329 290.221 133.317 290.124 133.286C290.027 133.255 289.938 133.206 289.86 133.14C289.127 132.605 288.274 132.26 287.375 132.134C286.477 132.009 285.561 132.107 284.71 132.42L284.78 132.44Z" fill="#31275B"/>
<path fill-rule="evenodd" clip-rule="evenodd" d="M275.94 137C275.94 137 279.28 136.18 280.07 130.77C280.86 125.36 280.65 126.7 281.07 123.88C281.49 121.06 284.16 116.41 289.87 117.24L300.17 118.74L310.47 120.23C316.18 121.06 317.47 126.28 317.01 129.1C316.55 131.92 316.79 130.59 316.01 136C315.23 141.41 318.19 143.14 318.19 143.14C318.82 138.85 320.37 137.36 320.37 137.36C320.37 137.36 321.2 131.62 321.93 126.61C322.66 121.6 322.23 114.67 316.32 109.08C312.51 105.513 307.698 103.2 302.533 102.451C297.367 101.701 292.097 102.553 287.43 104.89C280.18 108.55 277.79 115.09 277.06 120.1C276.33 125.11 275.5 130.84 275.5 130.84C275.5 130.84 276.56 132.72 275.95 137H275.94Z" fill="#31275B"/>
<path fill-rule="evenodd" clip-rule="evenodd" d="M289.86 117.21C292.967 120.3 296.941 122.37 301.253 123.145C305.565 123.92 310.012 123.364 314 121.55C314 121.55 320.19 117.9 322.12 120.69C322.12 120.69 326.43 109.4 316.72 106.48C316.72 106.48 318.96 105.36 318.83 103.91C318.7 102.46 315.49 98.11 305.48 100.29C305.48 100.29 305.82 96.69 302.61 95.65C299.4 94.61 288.7 98.24 286.14 105.59C286.14 105.59 284.07 110.99 289.91 117.21H289.86Z" fill="#443572"/>
<path fill-rule="evenodd" clip-rule="evenodd" d="M322.92 113.59C322.852 113.061 322.738 112.539 322.58 112.03C319.78 113.49 313.78 115.5 304.45 113.03C296.21 110.89 295.54 102.6 296.26 96.48C293.035 97.6264 290.171 99.6069 287.96 102.22C287.96 105.22 289.51 109.57 296.3 114.16C305.9 120.64 318.06 115.93 322.92 113.55V113.59Z" fill="#4F4D6E"/>
<path fill-rule="evenodd" clip-rule="evenodd" d="M198.6 88.2V89.84C199.256 90.1768 199.758 90.7533 200 91.45C200.344 92.1987 200.634 92.9706 200.87 93.7599L209.44 90.6499V89.9799L208.76 87.9799C208.707 87.8869 208.68 87.7818 208.68 87.675C208.68 87.5681 208.707 87.463 208.76 87.3699L204.41 85.45L198.6 88.2Z" fill="#FCB187"/>
<path fill-rule="evenodd" clip-rule="evenodd" d="M278.7 165.63C278.7 165.63 237.7 144.2 231.2 136.92C224.7 129.64 221.66 119.45 211.74 90.33C211.74 90.33 211.38 88.97 209.27 89.11C207.16 89.25 201.27 91.34 200.45 92.34C200.018 92.7773 199.7 93.3147 199.526 93.9044C199.351 94.4941 199.325 95.1178 199.45 95.72C199.74 97.09 211.45 142.45 214.75 149.23C218.05 156.01 248.08 183.92 254.33 190.43C260.58 196.94 278.67 165.63 278.67 165.63H278.7Z" fill="#443572"/>
<path fill-rule="evenodd" clip-rule="evenodd" d="M207.55 89.42C204.93 90.07 201.09 91.55 200.45 92.34C200.018 92.7772 199.7 93.3147 199.526 93.9044C199.351 94.4941 199.325 95.1178 199.45 95.72C199.74 97.09 211.45 142.45 214.75 149.23C218.05 156.01 248.08 183.92 254.33 190.43C256.28 192.43 259.38 190.8 262.74 187.56C263.02 185.85 263.09 184.77 262.9 184.56C261.45 183.23 259.54 181.68 248.99 172.89C238.44 164.1 222.04 148.98 219.33 143.39C216.62 137.8 208.21 108.21 205.49 99.39C202.87 90.85 207.18 89.53 207.49 89.39L207.55 89.42Z" fill="#31275B"/>
<path fill-rule="evenodd" clip-rule="evenodd" d="M211.08 78.4299C211.513 76.1129 212.583 73.9625 214.17 72.2199C215.12 71.2199 210.55 68.4299 208.76 73.2199C208.76 73.2199 207.15 75.0399 206.22 74.5099C205.29 73.9799 203.83 59.8599 203.67 58.3299C203.64 58.0613 203.544 57.8043 203.39 57.5824C203.235 57.3605 203.028 57.1807 202.787 57.0594C202.545 56.9382 202.277 56.8793 202.007 56.8881C201.737 56.8969 201.473 56.9731 201.24 57.1099C200.77 57.5399 201.02 59.7799 201.16 62.6199C201.3 65.4599 201.42 68.6799 201.16 68.9699C200.9 69.2599 200.27 69.2499 199.59 67.7199C198.91 66.1899 195.46 57.5999 194.69 57.1799C193.92 56.7599 192.52 57.5399 192.69 58.9799C192.86 60.4199 196.63 68.9799 196.77 70.1999C196.91 71.4199 195.67 71.3999 195.11 70.7199C194.55 70.0399 189.11 61.3699 188.42 60.9499C187.73 60.5299 186.31 61.3699 186.83 62.8299C187.35 64.2899 192.21 72.8299 192.17 73.5299C192.13 74.2299 191.17 74.7999 189.62 73.6799C188.07 72.5599 185.02 69.8799 184.43 69.8499C183.84 69.8199 183.08 71.6299 184.49 73.0599C185.9 74.4899 189.26 78.1699 189.69 78.7799C191.96 81.9799 193.13 85.5199 195.25 87.7799C196.053 88.6117 197.039 89.2451 198.13 89.6299C199.514 90.1194 200.983 90.3221 202.448 90.2259C203.912 90.1296 205.342 89.7363 206.65 89.0699C211.07 86.6699 210.28 82.8199 211.11 78.3999L211.08 78.4299Z" fill="#FCB187"/>
<path fill-rule="evenodd" clip-rule="evenodd" d="M279.47 270.53L276.75 272.85H254.13C254.13 272.85 255 270.05 256.49 269.18C256.912 268.992 257.368 268.894 257.83 268.89C258.296 268.306 258.896 267.842 259.58 267.54C262.564 266.629 265.599 265.894 268.67 265.34C271.44 264.86 274.11 265.82 275.43 265.82C276.554 265.786 277.676 265.693 278.79 265.54L279.47 270.53Z" fill="#FCB187"/>
<path fill-rule="evenodd" clip-rule="evenodd" d="M334.23 179.28C334.23 179.28 338.4 182.21 340.39 191.09C342.38 199.97 347.39 245.09 348.39 252.89C349.39 260.69 349.04 272.89 331.77 272.89H276.77V264.8C276.727 264.424 276.769 264.042 276.891 263.684C277.013 263.325 277.214 262.998 277.478 262.727C277.742 262.455 278.063 262.245 278.418 262.113C278.773 261.98 279.153 261.928 279.53 261.96C280.93 261.96 322.95 257.4 324.94 256.85C326.93 256.3 327.94 255.17 327.94 252.77C327.94 250.37 321.14 222.63 319.7 212.24C318.26 201.85 324.34 178.98 334.21 179.24L334.23 179.28Z" fill="#443572"/>
<path fill-rule="evenodd" clip-rule="evenodd" d="M348.69 256.74C348.85 264.16 346.38 272.85 331.76 272.85H276.76V266.53C278.11 268.21 280.81 270.14 286.11 270.14H329.45C336.08 270.14 348.45 265.34 348.7 256.74H348.69Z" fill="#31275B"/>
<path fill-rule="evenodd" clip-rule="evenodd" d="M319.72 212.24C320.72 219.24 324.15 234.24 326.26 243.91C326.988 246.83 327.555 249.788 327.96 252.77C327.89 254.97 327.07 256.1 325.39 256.7C329.55 256.01 330.96 254.06 331.67 251.43C332.29 249.19 331.74 239.76 329.99 222.32C329.68 219.27 329.34 215.96 328.99 212.42C327.58 199.27 330.64 190.51 333.67 185.3C334.446 183.955 335.332 182.678 336.32 181.48C335.745 180.65 335.051 179.909 334.26 179.28C324.39 178.98 318.32 201.85 319.75 212.28L319.72 212.24Z" fill="#31275B"/>
<path fill-rule="evenodd" clip-rule="evenodd" d="M292.72 145C292.72 145 294.6 143 295.2 142.51C295.8 142.02 295.92 142.59 295.85 143.37C295.78 144.15 295.98 145.66 295.56 146.01C295.14 146.36 293.06 146.01 292.62 145.83C292.18 145.65 292.72 145 292.72 145Z" fill="#FCCCB1"/>
<path d="M154.52 189.24C154.509 189.151 154.517 189.061 154.543 188.976C154.569 188.89 154.613 188.811 154.672 188.744C154.731 188.677 154.804 188.623 154.886 188.587C154.967 188.55 155.056 188.531 155.145 188.531C155.234 188.531 155.323 188.55 155.404 188.587C155.486 188.623 155.559 188.677 155.618 188.744C155.677 188.811 155.721 188.89 155.747 188.976C155.773 189.061 155.781 189.151 155.77 189.24V192.05C155.751 192.202 155.677 192.342 155.562 192.443C155.446 192.545 155.298 192.601 155.145 192.601C154.992 192.601 154.844 192.545 154.728 192.443C154.613 192.342 154.539 192.202 154.52 192.05V189.24ZM150.27 191.52C150.212 191.462 150.166 191.394 150.135 191.318C150.104 191.243 150.088 191.162 150.088 191.08C150.088 190.998 150.104 190.917 150.135 190.842C150.166 190.766 150.212 190.698 150.27 190.64C150.328 190.582 150.396 190.536 150.472 190.505C150.547 190.474 150.628 190.458 150.71 190.458C150.792 190.458 150.873 190.474 150.948 190.505C151.024 190.536 151.092 190.582 151.15 190.64L153.15 192.64C153.247 192.761 153.296 192.912 153.288 193.067C153.279 193.221 153.215 193.367 153.106 193.477C152.998 193.587 152.852 193.653 152.698 193.663C152.544 193.672 152.392 193.625 152.27 193.53L150.27 191.52ZM148.87 196.14C148.718 196.121 148.578 196.047 148.477 195.932C148.375 195.816 148.319 195.668 148.319 195.515C148.319 195.362 148.375 195.213 148.477 195.098C148.578 194.983 148.718 194.909 148.87 194.89H151.67C151.759 194.879 151.849 194.886 151.934 194.913C152.02 194.939 152.099 194.983 152.166 195.042C152.233 195.101 152.287 195.174 152.323 195.256C152.36 195.337 152.379 195.426 152.379 195.515C152.379 195.604 152.36 195.693 152.323 195.774C152.287 195.856 152.233 195.929 152.166 195.988C152.099 196.047 152.02 196.091 151.934 196.117C151.849 196.143 151.759 196.151 151.67 196.14H148.87ZM151.15 200.39C151.093 200.449 151.025 200.496 150.949 200.529C150.874 200.561 150.792 200.577 150.71 200.577C150.628 200.577 150.546 200.561 150.471 200.529C150.395 200.496 150.327 200.449 150.27 200.39C150.211 200.334 150.164 200.266 150.132 200.192C150.1 200.117 150.083 200.036 150.083 199.955C150.083 199.874 150.1 199.793 150.132 199.718C150.164 199.643 150.211 199.576 150.27 199.52L152.27 197.52C152.388 197.405 152.546 197.341 152.71 197.341C152.874 197.341 153.032 197.405 153.15 197.52C153.209 197.577 153.256 197.645 153.289 197.721C153.321 197.796 153.338 197.878 153.338 197.96C153.338 198.042 153.321 198.124 153.289 198.199C153.256 198.275 153.209 198.343 153.15 198.4L151.15 200.39ZM155.77 201.79C155.781 201.879 155.773 201.969 155.747 202.054C155.721 202.14 155.677 202.219 155.618 202.286C155.559 202.353 155.486 202.407 155.404 202.443C155.323 202.48 155.234 202.499 155.145 202.499C155.056 202.499 154.967 202.48 154.886 202.443C154.804 202.407 154.731 202.353 154.672 202.286C154.613 202.219 154.569 202.14 154.543 202.054C154.517 201.969 154.509 201.879 154.52 201.79V199C154.509 198.911 154.517 198.821 154.543 198.736C154.569 198.65 154.613 198.571 154.672 198.504C154.731 198.437 154.804 198.383 154.886 198.347C154.967 198.31 155.056 198.291 155.145 198.291C155.234 198.291 155.323 198.31 155.404 198.347C155.486 198.383 155.559 198.437 155.618 198.504C155.677 198.571 155.721 198.65 155.747 198.736C155.773 198.821 155.781 198.911 155.77 199V201.79ZM160.03 199.52C160.145 199.638 160.209 199.797 160.207 199.962C160.205 200.127 160.138 200.285 160.02 200.4C159.902 200.515 159.743 200.579 159.578 200.577C159.413 200.575 159.255 200.508 159.14 200.39L157.14 198.39C157.081 198.333 157.034 198.265 157.001 198.189C156.969 198.114 156.952 198.032 156.952 197.95C156.952 197.868 156.969 197.786 157.001 197.711C157.034 197.635 157.081 197.567 157.14 197.51C157.258 197.395 157.416 197.331 157.58 197.331C157.744 197.331 157.902 197.395 158.02 197.51L160.03 199.52ZM161.42 194.89C161.509 194.879 161.599 194.886 161.684 194.913C161.77 194.939 161.849 194.983 161.916 195.042C161.983 195.101 162.037 195.174 162.073 195.256C162.11 195.337 162.129 195.426 162.129 195.515C162.129 195.604 162.11 195.693 162.073 195.774C162.037 195.856 161.983 195.929 161.916 195.988C161.849 196.047 161.77 196.091 161.684 196.117C161.599 196.143 161.509 196.151 161.42 196.14H158.61C158.458 196.121 158.318 196.047 158.217 195.932C158.115 195.816 158.059 195.668 158.059 195.515C158.059 195.362 158.115 195.213 158.217 195.098C158.318 194.983 158.458 194.909 158.61 194.89H161.42ZM159.14 190.64C159.195 190.57 159.264 190.512 159.342 190.471C159.421 190.43 159.507 190.405 159.596 190.4C159.685 190.394 159.774 190.407 159.857 190.438C159.94 190.469 160.016 190.518 160.079 190.58C160.142 190.643 160.191 190.718 160.224 190.801C160.256 190.884 160.27 190.972 160.265 191.061C160.261 191.15 160.237 191.237 160.197 191.316C160.156 191.395 160.099 191.464 160.03 191.52L158.03 193.52C157.908 193.615 157.756 193.662 157.602 193.653C157.448 193.643 157.302 193.577 157.194 193.467C157.085 193.357 157.021 193.211 157.012 193.057C157.004 192.902 157.053 192.751 157.15 192.63L159.14 190.64Z" fill="#8B77E6"/>
<path fill-rule="evenodd" clip-rule="evenodd" d="M32.49 297.43H36C36.3112 297.43 36.6099 297.553 36.8309 297.772C37.0519 297.991 37.1774 298.289 37.18 298.6V302.14C37.18 302.453 37.0557 302.753 36.8344 302.974C36.6131 303.196 36.3129 303.32 36 303.32H32.49C32.3355 303.32 32.1825 303.289 32.0399 303.23C31.8973 303.17 31.7679 303.083 31.6591 302.974C31.5503 302.864 31.4644 302.734 31.4062 302.591C31.348 302.448 31.3187 302.294 31.32 302.14V298.6C31.32 298.29 31.4433 297.992 31.6627 297.773C31.8821 297.553 32.1797 297.43 32.49 297.43Z" fill="#DED8F9"/>
<path fill-rule="evenodd" clip-rule="evenodd" d="M44.56 297.43H48.1C48.4095 297.433 48.7056 297.557 48.9244 297.776C49.1433 297.994 49.2674 298.29 49.27 298.6V302.14C49.27 302.451 49.1471 302.75 48.9279 302.971C48.7088 303.192 48.4112 303.317 48.1 303.32H44.56C44.247 303.32 43.9469 303.196 43.7256 302.974C43.5043 302.753 43.38 302.453 43.38 302.14V298.6C43.3826 298.289 43.5081 297.991 43.7291 297.772C43.9501 297.553 44.2488 297.43 44.56 297.43Z" fill="#DED8F9"/>
<path fill-rule="evenodd" clip-rule="evenodd" d="M56.62 297.43H60.16C60.4712 297.43 60.7698 297.553 60.9908 297.772C61.2118 297.991 61.3373 298.289 61.34 298.6V302.14C61.34 302.453 61.2156 302.753 60.9943 302.974C60.773 303.196 60.4729 303.32 60.16 303.32H56.62C56.3087 303.317 56.0112 303.192 55.792 302.971C55.5729 302.75 55.4499 302.451 55.45 302.14V298.6C55.4526 298.29 55.5767 297.994 55.7955 297.776C56.0144 297.557 56.3105 297.433 56.62 297.43Z" fill="#DED8F9"/>
<path fill-rule="evenodd" clip-rule="evenodd" d="M68.7 297.43H72.23C72.5403 297.43 72.8379 297.553 73.0573 297.773C73.2768 297.992 73.4 298.29 73.4 298.6V302.14C73.4013 302.294 73.3721 302.448 73.3139 302.591C73.2556 302.734 73.1697 302.864 73.0609 302.974C72.9521 303.083 72.8227 303.171 72.6801 303.23C72.5375 303.289 72.3845 303.32 72.23 303.32H68.7C68.3871 303.32 68.0869 303.196 67.8656 302.974C67.6443 302.753 67.52 302.453 67.52 302.14V298.6C67.52 298.445 67.5506 298.293 67.61 298.15C67.6695 298.007 67.7565 297.878 67.8662 297.769C67.9759 297.66 68.1061 297.574 68.2492 297.516C68.3923 297.458 68.5455 297.429 68.7 297.43Z" fill="#DED8F9"/>
<path d="M109.58 24.1699C109.58 24.0055 109.645 23.8478 109.762 23.7315C109.878 23.6152 110.036 23.5499 110.2 23.5499C110.364 23.5499 110.522 23.6152 110.638 23.7315C110.755 23.8478 110.82 24.0055 110.82 24.1699V26.9999C110.82 27.1644 110.755 27.3221 110.638 27.4383C110.522 27.5546 110.364 27.6199 110.2 27.6199C110.036 27.6199 109.878 27.5546 109.762 27.4383C109.645 27.3221 109.58 27.1644 109.58 26.9999V24.1699ZM105.32 26.4599C105.257 26.4025 105.206 26.333 105.171 26.2555C105.136 26.1779 105.117 26.0941 105.115 26.0089C105.113 25.9237 105.128 25.839 105.16 25.76C105.191 25.6809 105.239 25.6091 105.299 25.5488C105.359 25.4886 105.431 25.4412 105.51 25.4095C105.589 25.3778 105.674 25.3625 105.759 25.3645C105.844 25.3665 105.928 25.3857 106.006 25.421C106.083 25.4563 106.153 25.507 106.21 25.5699L108.21 27.5699C108.28 27.6247 108.338 27.6937 108.379 27.7723C108.42 27.8509 108.445 27.9374 108.45 28.0261C108.456 28.1147 108.443 28.2036 108.412 28.2868C108.381 28.3701 108.332 28.4458 108.27 28.5089C108.207 28.5721 108.132 28.6214 108.049 28.6535C107.966 28.6856 107.878 28.6998 107.789 28.6951C107.7 28.6905 107.613 28.6672 107.534 28.6266C107.455 28.5861 107.386 28.5293 107.33 28.4599L105.32 26.4599ZM103.93 31.0799C103.763 31.0799 103.603 31.0135 103.485 30.8954C103.366 30.7773 103.3 30.617 103.3 30.4499C103.3 30.3677 103.316 30.2862 103.348 30.2103C103.38 30.1344 103.427 30.0656 103.485 30.0079C103.544 29.9502 103.613 29.9048 103.69 29.8742C103.766 29.8437 103.848 29.8286 103.93 29.8299H106.74C106.904 29.8299 107.062 29.8952 107.178 30.0115C107.295 30.1278 107.36 30.2855 107.36 30.4499C107.36 30.6153 107.295 30.774 107.179 30.8919C107.063 31.0098 106.905 31.0773 106.74 31.0799H103.93ZM106.21 35.3299C106.091 35.4454 105.931 35.5099 105.765 35.5099C105.599 35.5099 105.439 35.4454 105.32 35.3299C105.205 35.2123 105.141 35.0543 105.141 34.8899C105.141 34.7255 105.205 34.5676 105.32 34.4499L107.32 32.4499C107.438 32.3351 107.596 32.2708 107.76 32.2708C107.924 32.2708 108.082 32.3351 108.2 32.4499C108.259 32.5068 108.306 32.5752 108.339 32.6508C108.371 32.7264 108.388 32.8077 108.388 32.8899C108.388 32.9721 108.371 33.0535 108.339 33.1291C108.306 33.2047 108.259 33.273 108.2 33.3299L106.21 35.3299ZM110.82 36.7299C110.82 36.8944 110.755 37.0521 110.638 37.1683C110.522 37.2846 110.364 37.3499 110.2 37.3499C110.036 37.3499 109.878 37.2846 109.762 37.1683C109.645 37.0521 109.58 36.8944 109.58 36.7299V33.9199C109.58 33.7555 109.645 33.5978 109.762 33.4815C109.878 33.3652 110.036 33.2999 110.2 33.2999C110.364 33.2999 110.522 33.3652 110.638 33.4815C110.755 33.5978 110.82 33.7555 110.82 33.9199V36.7299ZM115.08 34.4499C115.197 34.5666 115.262 34.7249 115.262 34.8899C115.262 35.055 115.197 35.2132 115.08 35.3299C114.963 35.4466 114.805 35.5122 114.64 35.5122C114.475 35.5122 114.317 35.4466 114.2 35.3299L112.2 33.3299C112.141 33.273 112.094 33.2047 112.061 33.1291C112.029 33.0535 112.013 32.9721 112.013 32.8899C112.013 32.8077 112.029 32.7264 112.061 32.6508C112.094 32.5752 112.141 32.5068 112.2 32.4499C112.318 32.3351 112.476 32.2708 112.64 32.2708C112.804 32.2708 112.962 32.3351 113.08 32.4499L115.08 34.4499ZM116.48 29.8299C116.562 29.8286 116.643 29.8437 116.719 29.8744C116.795 29.905 116.864 29.9507 116.921 30.0085C116.979 30.0664 117.025 30.1352 117.056 30.2111C117.086 30.2869 117.101 30.3681 117.1 30.4499C117.1 30.6153 117.035 30.774 116.919 30.8919C116.803 31.0098 116.645 31.0773 116.48 31.0799H113.68C113.513 31.0799 113.353 31.0135 113.235 30.8954C113.116 30.7773 113.05 30.617 113.05 30.4499C113.049 30.3673 113.064 30.2852 113.095 30.2087C113.127 30.1322 113.173 30.0628 113.232 30.0048C113.291 29.9468 113.361 29.9014 113.438 29.8714C113.515 29.8413 113.597 29.8272 113.68 29.8299H116.48ZM114.2 25.5699C114.318 25.4551 114.476 25.3908 114.64 25.3908C114.804 25.3908 114.962 25.4551 115.08 25.5699C115.196 25.6893 115.26 25.8489 115.26 26.0149C115.26 26.181 115.196 26.3406 115.08 26.4599L113.08 28.4599C113.024 28.5293 112.955 28.5861 112.876 28.6266C112.797 28.6672 112.71 28.6905 112.621 28.6951C112.532 28.6998 112.444 28.6856 112.361 28.6535C112.278 28.6214 112.203 28.5721 112.14 28.5089C112.078 28.4458 112.03 28.3701 111.998 28.2868C111.967 28.2036 111.954 28.1147 111.96 28.0261C111.965 27.9374 111.99 27.8509 112.031 27.7723C112.072 27.6937 112.13 27.6247 112.2 27.5699L114.2 25.5699Z" fill="#8B77E6"/>
<path fill-rule="evenodd" clip-rule="evenodd" d="M138.67 144.87H142.21C142.522 144.873 142.821 144.998 143.042 145.219C143.262 145.439 143.387 145.738 143.39 146.05V149.58C143.387 149.892 143.262 150.191 143.042 150.411C142.821 150.632 142.522 150.757 142.21 150.76H138.67C138.359 150.757 138.061 150.632 137.842 150.411C137.623 150.19 137.5 149.891 137.5 149.58V146.05C137.5 145.739 137.623 145.44 137.842 145.219C138.061 144.998 138.359 144.873 138.67 144.87Z" fill="#F1EFFD"/>
<path fill-rule="evenodd" clip-rule="evenodd" d="M150.75 144.87H154.28C154.435 144.87 154.588 144.901 154.73 144.96C154.873 145.019 155.002 145.107 155.111 145.216C155.22 145.326 155.306 145.456 155.364 145.599C155.422 145.742 155.451 145.896 155.45 146.05V149.58C155.451 149.734 155.422 149.888 155.364 150.031C155.306 150.174 155.22 150.304 155.111 150.414C155.002 150.523 154.873 150.611 154.73 150.67C154.588 150.729 154.435 150.76 154.28 150.76H150.75C150.437 150.76 150.137 150.636 149.916 150.414C149.694 150.193 149.57 149.893 149.57 149.58V146.05C149.57 145.737 149.694 145.437 149.916 145.216C150.137 144.994 150.437 144.87 150.75 144.87Z" fill="#F1EFFD"/>
<path fill-rule="evenodd" clip-rule="evenodd" d="M162.81 144.87H166.35C166.662 144.873 166.961 144.998 167.182 145.219C167.402 145.439 167.527 145.738 167.53 146.05V149.58C167.527 149.892 167.402 150.191 167.182 150.411C166.961 150.632 166.662 150.757 166.35 150.76H162.81C162.498 150.757 162.199 150.632 161.979 150.411C161.758 150.191 161.633 149.892 161.63 149.58V146.05C161.633 145.738 161.758 145.439 161.979 145.219C162.199 144.998 162.498 144.873 162.81 144.87Z" fill="#F1EFFD"/>
<path fill-rule="evenodd" clip-rule="evenodd" d="M174.88 144.87H178.41C178.565 144.87 178.718 144.901 178.862 144.96C179.005 145.019 179.135 145.106 179.244 145.216C179.354 145.325 179.441 145.455 179.5 145.598C179.559 145.742 179.59 145.895 179.59 146.05V149.58C179.59 149.735 179.559 149.888 179.5 150.032C179.441 150.175 179.354 150.305 179.244 150.414C179.135 150.524 179.005 150.611 178.862 150.67C178.718 150.729 178.565 150.76 178.41 150.76H174.88C174.726 150.76 174.573 150.729 174.43 150.67C174.287 150.611 174.158 150.523 174.049 150.414C173.94 150.304 173.854 150.174 173.796 150.031C173.738 149.888 173.709 149.734 173.71 149.58V146.05C173.709 145.896 173.738 145.742 173.796 145.599C173.854 145.456 173.94 145.326 174.049 145.216C174.158 145.107 174.287 145.019 174.43 144.96C174.573 144.901 174.726 144.87 174.88 144.87Z" fill="#F1EFFD"/>
<path fill-rule="evenodd" clip-rule="evenodd" d="M480.37 94.5499V171.77H468.15C463.94 171.783 459.906 173.461 456.929 176.439C453.952 179.416 452.273 183.45 452.26 187.66C452.276 191.868 453.955 195.9 456.932 198.875C459.909 201.85 463.942 203.527 468.15 203.54H480.37V361.85H410.37V6.28992C420.685 11.2828 429.388 19.075 435.486 28.7771C441.585 38.4792 444.833 49.7004 444.86 61.1599C444.889 70.0083 448.418 78.4858 454.675 84.7417C460.933 90.9975 469.412 94.5236 478.26 94.5499H480.37Z" fill="#BBBBF6"/>
<path fill-rule="evenodd" clip-rule="evenodd" d="M416.51 9.70998V361.85H404.3V3.72998C408.582 5.26573 412.678 7.27839 416.51 9.72998V9.70998Z" fill="#DEDFFD"/>
<path fill-rule="evenodd" clip-rule="evenodd" d="M431.6 23.27V361.85H419.38V11.65C423.965 14.9465 428.077 18.8563 431.6 23.27Z" fill="#DEDFFD"/>
<path fill-rule="evenodd" clip-rule="evenodd" d="M446.69 71.9099V361.85H434.47V27.1699C441.277 37.201 444.911 49.0471 444.9 61.1699C444.899 64.8275 445.504 68.46 446.69 71.9199V71.9099Z" fill="#DEDFFD"/>
<path fill-rule="evenodd" clip-rule="evenodd" d="M461.78 90.15V173.15C458.961 174.399 456.563 176.435 454.874 179.015C453.185 181.594 452.277 184.607 452.26 187.69C452.277 190.773 453.185 193.786 454.874 196.365C456.563 198.945 458.961 200.981 461.78 202.23V361.85H449.56V78.11C452.536 83.0922 456.745 87.2247 461.78 90.11V90.15Z" fill="#DEDFFD"/>
<path fill-rule="evenodd" clip-rule="evenodd" d="M476.86 94.52V171.77H468.15C466.969 171.771 465.791 171.905 464.64 172.17V91.61C468.491 93.3499 472.638 94.3377 476.86 94.52ZM476.86 203.52V361.85H464.64V203.15C465.792 203.412 466.969 203.543 468.15 203.54L476.86 203.52Z" fill="#DEDFFD"/>
<path fill-rule="evenodd" clip-rule="evenodd" d="M313.12 333.58H316.66C316.97 333.58 317.268 333.703 317.487 333.923C317.707 334.142 317.83 334.44 317.83 334.75V338.28C317.831 338.434 317.802 338.588 317.744 338.731C317.686 338.874 317.6 339.004 317.491 339.114C317.382 339.224 317.253 339.311 317.11 339.37C316.967 339.429 316.814 339.46 316.66 339.46H313.12C312.807 339.46 312.507 339.336 312.286 339.114C312.064 338.893 311.94 338.593 311.94 338.28V334.75C311.94 334.596 311.971 334.443 312.03 334.3C312.089 334.157 312.176 334.028 312.286 333.919C312.396 333.81 312.526 333.724 312.669 333.666C312.812 333.608 312.965 333.579 313.12 333.58Z" fill="#F1EFFD"/>
<path fill-rule="evenodd" clip-rule="evenodd" d="M325.19 333.58H328.72C328.875 333.579 329.028 333.608 329.171 333.666C329.314 333.724 329.444 333.81 329.554 333.919C329.664 334.028 329.751 334.157 329.81 334.3C329.869 334.443 329.9 334.596 329.9 334.75V338.28C329.9 338.593 329.776 338.893 329.554 339.114C329.333 339.336 329.033 339.46 328.72 339.46H325.19C325.036 339.46 324.883 339.429 324.74 339.37C324.597 339.311 324.468 339.224 324.359 339.114C324.25 339.004 324.164 338.874 324.106 338.731C324.048 338.588 324.019 338.434 324.02 338.28V334.75C324.02 334.44 324.143 334.142 324.363 333.923C324.582 333.703 324.88 333.58 325.19 333.58Z" fill="#F1EFFD"/>
<path fill-rule="evenodd" clip-rule="evenodd" d="M337.26 333.58H340.79C340.944 333.579 341.098 333.608 341.241 333.666C341.384 333.724 341.514 333.81 341.624 333.919C341.733 334.028 341.821 334.157 341.88 334.3C341.939 334.443 341.97 334.596 341.97 334.75V338.28C341.97 338.435 341.939 338.588 341.88 338.732C341.821 338.875 341.734 339.005 341.624 339.114C341.515 339.224 341.385 339.311 341.242 339.37C341.098 339.429 340.945 339.46 340.79 339.46H337.26C336.947 339.46 336.647 339.336 336.426 339.114C336.204 338.893 336.08 338.593 336.08 338.28V334.75C336.08 334.596 336.111 334.443 336.17 334.3C336.229 334.157 336.316 334.028 336.426 333.919C336.536 333.81 336.666 333.724 336.809 333.666C336.952 333.608 337.105 333.579 337.26 333.58Z" fill="#F1EFFD"/>
<path fill-rule="evenodd" clip-rule="evenodd" d="M349.33 333.58H352.86C353.015 333.579 353.168 333.608 353.311 333.666C353.454 333.724 353.584 333.81 353.694 333.919C353.804 334.028 353.891 334.157 353.95 334.3C354.009 334.443 354.04 334.596 354.04 334.75V338.28C354.04 338.593 353.916 338.893 353.694 339.114C353.473 339.336 353.173 339.46 352.86 339.46H349.33C349.017 339.46 348.717 339.336 348.496 339.114C348.274 338.893 348.15 338.593 348.15 338.28V334.75C348.15 334.596 348.181 334.443 348.24 334.3C348.299 334.157 348.387 334.028 348.496 333.919C348.606 333.81 348.736 333.724 348.879 333.666C349.022 333.608 349.176 333.579 349.33 333.58Z" fill="#F1EFFD"/>
<path fill-rule="evenodd" clip-rule="evenodd" d="M333.37 13.1599H336.9C337.055 13.1599 337.208 13.1904 337.352 13.2497C337.495 13.309 337.625 13.396 337.734 13.5055C337.844 13.6151 337.931 13.7452 337.99 13.8883C338.049 14.0315 338.08 14.1849 338.08 14.3399V17.8699C338.07 18.175 337.94 18.4639 337.72 18.675C337.499 18.8861 337.205 19.0027 336.9 18.9999H333.37C333.215 19.0012 333.062 18.9719 332.919 18.9137C332.776 18.8555 332.646 18.7696 332.536 18.6608C332.426 18.552 332.339 18.4226 332.28 18.28C332.221 18.1374 332.19 17.9844 332.19 17.8299V14.3399C332.19 14.1849 332.22 14.0315 332.28 13.8883C332.339 13.7452 332.426 13.6151 332.536 13.5055C332.645 13.396 332.775 13.309 332.918 13.2497C333.062 13.1904 333.215 13.1599 333.37 13.1599Z" fill="#F1EFFD"/>
<path fill-rule="evenodd" clip-rule="evenodd" d="M345.44 13.1599H349C349.311 13.1625 349.609 13.288 349.828 13.509C350.047 13.73 350.17 14.0287 350.17 14.3399V17.8699C350.16 18.1732 350.032 18.4606 349.814 18.6715C349.595 18.8823 349.304 19.0001 349 18.9999H345.47C345.316 19.0012 345.162 18.9719 345.019 18.9137C344.876 18.8555 344.746 18.7696 344.636 18.6608C344.527 18.552 344.439 18.4226 344.38 18.28C344.321 18.1374 344.29 17.9844 344.29 17.8299V14.3399C344.29 14.1849 344.321 14.0315 344.38 13.8883C344.439 13.7452 344.526 13.6151 344.636 13.5055C344.745 13.396 344.875 13.309 345.018 13.2497C345.162 13.1904 345.315 13.1599 345.47 13.1599H345.44Z" fill="#F1EFFD"/>
<path fill-rule="evenodd" clip-rule="evenodd" d="M357.51 13.16H361C361.156 13.1586 361.31 13.1882 361.455 13.2469C361.599 13.3056 361.73 13.3923 361.841 13.502C361.952 13.6117 362.039 13.7422 362.099 13.8861C362.159 14.0299 362.19 14.1841 362.19 14.3399V17.87C362.177 18.1759 362.046 18.4648 361.824 18.6757C361.602 18.8865 361.306 19.0028 361 19H357.48C357.326 19.0013 357.172 18.972 357.029 18.9138C356.886 18.8556 356.756 18.7696 356.646 18.6608C356.537 18.552 356.449 18.4226 356.39 18.28C356.331 18.1374 356.3 17.9844 356.3 17.83V14.3399C356.3 14.185 356.331 14.0316 356.39 13.8884C356.449 13.7452 356.536 13.6151 356.646 13.5056C356.755 13.396 356.885 13.3091 357.029 13.2498C357.172 13.1905 357.325 13.16 357.48 13.16H357.51Z" fill="#F1EFFD"/>
<path fill-rule="evenodd" clip-rule="evenodd" d="M369.57 13.1599H373.11C373.421 13.1625 373.719 13.288 373.938 13.509C374.157 13.73 374.28 14.0287 374.28 14.3399V17.8699C374.27 18.1732 374.142 18.4606 373.923 18.6715C373.705 18.8823 373.413 19.0001 373.11 18.9999H369.57C369.259 18.9999 368.96 18.877 368.739 18.6578C368.518 18.4387 368.393 18.1411 368.39 17.8299V14.3399C368.393 14.0278 368.518 13.7291 368.738 13.5084C368.959 13.2877 369.258 13.1625 369.57 13.1599Z" fill="#F1EFFD"/>
<path fill-rule="evenodd" clip-rule="evenodd" d="M502.8 230.89H506.33C506.64 230.89 506.938 231.013 507.157 231.233C507.377 231.452 507.5 231.75 507.5 232.06V235.59C507.5 235.901 507.377 236.2 507.158 236.421C506.939 236.642 506.641 236.767 506.33 236.77H502.8C502.487 236.77 502.187 236.646 501.966 236.424C501.744 236.203 501.62 235.903 501.62 235.59V232.06C501.62 231.905 501.651 231.753 501.71 231.61C501.769 231.467 501.856 231.338 501.966 231.229C502.076 231.12 502.206 231.034 502.349 230.976C502.492 230.918 502.646 230.889 502.8 230.89Z" fill="#F1EFFD"/>
<path fill-rule="evenodd" clip-rule="evenodd" d="M514.86 230.89H518.4C518.711 230.89 519.01 231.013 519.231 231.232C519.452 231.451 519.577 231.749 519.58 232.06V235.59C519.577 235.902 519.452 236.201 519.231 236.422C519.011 236.642 518.712 236.767 518.4 236.77H514.86C514.549 236.767 514.251 236.642 514.032 236.421C513.813 236.2 513.69 235.901 513.69 235.59V232.06C513.69 231.75 513.813 231.452 514.033 231.233C514.252 231.013 514.55 230.89 514.86 230.89Z" fill="#F1EFFD"/>
<path fill-rule="evenodd" clip-rule="evenodd" d="M526.93 230.89H530.46C530.615 230.889 530.768 230.918 530.911 230.976C531.054 231.034 531.184 231.12 531.294 231.229C531.403 231.338 531.491 231.467 531.55 231.61C531.609 231.753 531.64 231.905 531.64 232.06V235.59C531.64 235.903 531.516 236.203 531.294 236.424C531.073 236.646 530.773 236.77 530.46 236.77H526.93C526.617 236.77 526.317 236.646 526.096 236.424C525.874 236.203 525.75 235.903 525.75 235.59V232.06C525.75 231.905 525.781 231.753 525.84 231.61C525.899 231.467 525.986 231.338 526.096 231.229C526.206 231.12 526.336 231.034 526.479 230.976C526.622 230.918 526.776 230.889 526.93 230.89Z" fill="#F1EFFD"/>
<path fill-rule="evenodd" clip-rule="evenodd" d="M539 230.89H542.53C542.685 230.889 542.838 230.918 542.981 230.976C543.124 231.034 543.254 231.12 543.364 231.229C543.474 231.338 543.561 231.467 543.62 231.61C543.679 231.753 543.71 231.905 543.71 232.06V235.59C543.71 235.903 543.586 236.203 543.364 236.424C543.143 236.646 542.843 236.77 542.53 236.77H539C538.688 236.767 538.389 236.642 538.169 236.421C537.948 236.201 537.823 235.902 537.82 235.59V232.06C537.823 231.749 537.948 231.451 538.169 231.232C538.39 231.013 538.689 230.89 539 230.89Z" fill="#F1EFFD"/>
<path fill-rule="evenodd" clip-rule="evenodd" d="M91.25 352.69C91.2941 344.406 92.2159 336.15 94 328.06L94.06 327.85C94.15 327.47 94.44 326.75 95.2 326.96C96.2 327.23 104.51 331.89 112.26 339.79C120.01 347.69 119.89 335.79 113.15 331.14C106.41 326.49 99.55 324.5 97.49 322.71C96.9072 322.269 96.4456 321.687 96.1484 321.019C95.8511 320.351 95.7278 319.618 95.79 318.89C97.4 309.84 98.6 300.58 99.44 291.45C99.44 291.45 99.83 289.45 101.71 291.8C103.59 294.15 110.95 302.26 116.66 302.8C122.37 303.34 117.14 294.29 109.07 289.8C101 285.31 100.07 284.41 100.07 283.33C100.59 276.14 100.89 269.11 101 262.41C101 262.41 101.32 261.21 102.39 262.08C103.46 262.95 111.47 272.13 115.75 271.16C120.03 270.19 115.87 262.36 109.05 259.62C102.23 256.88 101.05 256.06 101.05 255.05C100.98 235.22 99.23 219.25 96.59 212.45C93.85 205.38 111.26 221.38 127.35 247.51C128.73 249.89 128.64 251.25 127.75 254.14C126.75 257.23 125.75 264.2 128.25 262.58C130.75 260.96 131.12 254.83 131.33 254.72C131.379 254.69 131.437 254.678 131.494 254.687C131.551 254.696 131.603 254.726 131.64 254.77C134.27 259.44 136.81 264.36 139.16 269.47C141.58 275.21 138.34 279.12 133.84 284.72C129.16 290.53 130.01 296.72 134.97 294.1C139.93 291.48 142.24 279.45 142.65 279.1C143.06 278.75 143.31 279.25 143.35 279.34C146.691 287.827 149.199 296.618 150.84 305.59C151.17 310.06 147.53 313.76 143.71 319.8C139.89 325.84 142.82 329.55 145.86 328.72C148.9 327.89 150.94 320.47 151.6 319.99C152.26 319.51 152.4 319.92 152.43 319.99C152.83 328.717 151.879 337.454 149.61 345.89C147.843 352.438 145.689 358.876 143.16 365.17H103.76L91.25 352.69Z" fill="#443572"/>
<path fill-rule="evenodd" clip-rule="evenodd" d="M137 365.22C131.83 296.22 114.11 236.48 114 236.22C113.943 236.023 113.848 235.839 113.719 235.679C113.591 235.519 113.433 235.386 113.253 235.287C113.073 235.188 112.876 235.125 112.672 235.103C112.468 235.08 112.262 235.098 112.065 235.155C111.868 235.212 111.684 235.307 111.524 235.436C111.364 235.564 111.231 235.722 111.132 235.902C111.033 236.082 110.97 236.279 110.948 236.483C110.925 236.687 110.943 236.893 111 237.09C111.09 237.39 128.72 296.8 133.89 365.27L137 365.22Z" fill="#31275B"/>
<path fill-rule="evenodd" clip-rule="evenodd" d="M169.54 270.35C199.43 252.65 207.68 289.48 201.62 306.17C197.13 318.52 181.21 345.57 170 365.22H128.31C133.72 323.94 147.55 283.38 169.54 270.35Z" fill="#A8A8E5"/>
<path fill-rule="evenodd" clip-rule="evenodd" d="M146.46 365.22C161.67 317 185 277 185.08 276.81C185.286 276.508 185.585 276.281 185.931 276.162C186.276 276.043 186.652 276.039 187 276.15C187.159 276.179 187.31 276.246 187.437 276.345C187.565 276.445 187.667 276.574 187.734 276.721C187.801 276.869 187.831 277.031 187.822 277.192C187.812 277.354 187.764 277.511 187.68 277.65C187.56 277.86 164.48 317.43 149.34 365.22H146.46Z" fill="#DBDBFD"/>
<path fill-rule="evenodd" clip-rule="evenodd" d="M41.4899 249.24C50.7099 214.41 83.1799 233.48 97.1299 263.24C105 280.04 118.64 324.38 133.98 365.24H94.9999L83.4099 358.74C56.4599 308.34 37.7899 263.17 41.4699 249.26L41.4899 249.24Z" fill="#F1EFFD"/>
<path fill-rule="evenodd" clip-rule="evenodd" d="M104.5 356.85C74.88 300.66 59.43 246.09 59.35 245.85C59.2425 245.48 59.2865 245.083 59.4722 244.745C59.6578 244.407 59.97 244.157 60.34 244.05C60.7099 243.943 61.1074 243.987 61.445 244.172C61.7826 244.358 62.0326 244.67 62.14 245.04C62.22 245.34 79.2 305.27 111.58 363.95L104.5 356.85Z" fill="white"/>
<path d="M592.84 255.12H555.78V266.35H592.84V255.12Z" fill="#BBBBF6"/>
<path d="M576.63 268.6H539.56V279.83H576.63V268.6Z" fill="#BBBBF6"/>
<path fill-rule="evenodd" clip-rule="evenodd" d="M578.4 268.6H601.85C602.518 272.31 602.923 276.063 603.06 279.83H578.4V268.6Z" fill="#BBBBF6"/>
<path d="M592.84 282.07H555.78V293.3H592.84V282.07Z" fill="#BBBBF6"/>
<path fill-rule="evenodd" clip-rule="evenodd" d="M594.61 282.07H603.1C603.1 282.28 603.1 282.49 603.1 282.69C603.102 286.242 602.865 289.79 602.39 293.31H594.6L594.61 282.07Z" fill="#BBBBF6"/>
<path fill-rule="evenodd" clip-rule="evenodd" d="M578.4 295.55H602.05C601.426 299.358 600.52 303.115 599.34 306.79H578.4V295.55Z" fill="#BBBBF6"/>
<path d="M516.24 307.47C516.24 307.303 516.306 307.143 516.424 307.025C516.543 306.906 516.703 306.84 516.87 306.84C517.037 306.84 517.197 306.906 517.315 307.025C517.434 307.143 517.5 307.303 517.5 307.47V310.28C517.5 310.447 517.434 310.607 517.315 310.725C517.197 310.844 517.037 310.91 516.87 310.91C516.703 310.91 516.543 310.844 516.424 310.725C516.306 310.607 516.24 310.447 516.24 310.28V307.47ZM512 309.75C511.941 309.693 511.894 309.625 511.861 309.549C511.829 309.473 511.812 309.392 511.812 309.31C511.812 309.228 511.829 309.146 511.861 309.071C511.894 308.995 511.941 308.927 512 308.87C512.119 308.754 512.279 308.69 512.445 308.69C512.611 308.69 512.771 308.754 512.89 308.87L514.89 310.87C515.007 310.987 515.072 311.145 515.072 311.31C515.072 311.475 515.007 311.633 514.89 311.75C514.773 311.867 514.615 311.932 514.45 311.932C514.285 311.932 514.127 311.867 514.01 311.75L512 309.75ZM510.6 314.38C510.435 314.377 510.277 314.31 510.161 314.192C510.045 314.074 509.98 313.915 509.98 313.75C509.98 313.586 510.045 313.428 510.162 313.312C510.278 313.195 510.436 313.13 510.6 313.13H513.41C513.575 313.13 513.734 313.195 513.852 313.311C513.97 313.427 514.037 313.585 514.04 313.75C514.037 313.916 513.97 314.075 513.853 314.193C513.735 314.31 513.576 314.377 513.41 314.38H510.6ZM512.89 318.63C512.833 318.693 512.763 318.744 512.686 318.779C512.608 318.814 512.524 318.833 512.439 318.835C512.354 318.837 512.269 318.822 512.19 318.79C512.111 318.759 512.039 318.711 511.979 318.651C511.919 318.591 511.871 318.519 511.84 318.44C511.808 318.361 511.793 318.276 511.795 318.191C511.797 318.106 511.816 318.022 511.851 317.944C511.886 317.867 511.937 317.797 512 317.74L514 315.74C514.117 315.623 514.275 315.558 514.44 315.558C514.605 315.558 514.763 315.623 514.88 315.74C514.997 315.857 515.062 316.015 515.062 316.18C515.062 316.345 514.997 316.503 514.88 316.62L512.89 318.63ZM517.51 320.03C517.51 320.197 517.444 320.357 517.326 320.475C517.207 320.594 517.047 320.66 516.88 320.66C516.713 320.66 516.553 320.594 516.435 320.475C516.316 320.357 516.25 320.197 516.25 320.03V317.22C516.25 317.053 516.316 316.893 516.435 316.775C516.553 316.656 516.713 316.59 516.88 316.59C517.047 316.59 517.207 316.656 517.326 316.775C517.444 316.893 517.51 317.053 517.51 317.22V320.03ZM521.76 317.74C521.82 317.798 521.867 317.867 521.899 317.943C521.932 318.02 521.948 318.102 521.948 318.185C521.948 318.268 521.932 318.35 521.899 318.427C521.867 318.503 521.82 318.572 521.76 318.63C521.703 318.689 521.635 318.736 521.559 318.769C521.484 318.801 521.402 318.817 521.32 318.817C521.238 318.817 521.156 318.801 521.081 318.769C521.005 318.736 520.937 318.689 520.88 318.63L518.88 316.63C518.822 316.572 518.776 316.504 518.745 316.428C518.714 316.353 518.698 316.272 518.698 316.19C518.698 316.108 518.714 316.027 518.745 315.952C518.776 315.876 518.822 315.808 518.88 315.75C518.938 315.692 519.006 315.646 519.082 315.615C519.157 315.584 519.238 315.568 519.32 315.568C519.402 315.568 519.483 315.584 519.558 315.615C519.634 315.646 519.702 315.692 519.76 315.75L521.76 317.74ZM523.16 313.13C523.324 313.13 523.482 313.195 523.598 313.312C523.715 313.428 523.78 313.586 523.78 313.75C523.78 313.915 523.715 314.074 523.599 314.192C523.483 314.31 523.325 314.377 523.16 314.38H520.35C520.184 314.377 520.025 314.31 519.907 314.193C519.79 314.075 519.723 313.916 519.72 313.75C519.723 313.585 519.79 313.427 519.908 313.311C520.026 313.195 520.185 313.13 520.35 313.13H523.16ZM520.88 308.87C520.998 308.755 521.156 308.691 521.32 308.691C521.484 308.691 521.642 308.755 521.76 308.87C521.819 308.927 521.866 308.995 521.899 309.071C521.931 309.146 521.948 309.228 521.948 309.31C521.948 309.392 521.931 309.473 521.899 309.549C521.866 309.625 521.819 309.693 521.76 309.75L519.76 311.75C519.702 311.808 519.634 311.854 519.558 311.885C519.483 311.916 519.402 311.932 519.32 311.932C519.238 311.932 519.157 311.916 519.082 311.885C519.006 311.854 518.938 311.808 518.88 311.75C518.822 311.692 518.776 311.624 518.745 311.548C518.714 311.473 518.698 311.392 518.698 311.31C518.698 311.228 518.714 311.147 518.745 311.072C518.776 310.996 518.822 310.928 518.88 310.87L520.88 308.87Z" fill="#8B77E6"/>
<path fill-rule="evenodd" clip-rule="evenodd" d="M583.1 250.28C591.72 278.28 594.94 293.47 599.57 306.05C601.921 298.486 603.114 290.611 603.11 282.69V242.54C603.11 169.54 572.47 215.79 583.11 250.28H583.1Z" fill="#31275B"/>
<path fill-rule="evenodd" clip-rule="evenodd" d="M476.26 356.76C468.251 346.174 462.258 334.205 458.58 321.45C451.45 296.24 480.74 324.18 503.84 356.76H476.26Z" fill="#443572"/>
<path fill-rule="evenodd" clip-rule="evenodd" d="M516.54 356.76C509.32 344.56 502.16 328.51 501.04 311.62C498.67 276.08 498.04 264.91 491.21 259.15C485.41 254.22 555.43 255.27 584.79 333.2C576.001 343.763 564.634 351.878 551.79 356.76H516.54Z" fill="#443572"/>
<path fill-rule="evenodd" clip-rule="evenodd" d="M501.25 257.92C527.76 282.03 548.61 317.68 563.89 350.92C563.16 351.35 562.42 351.77 561.69 352.17C546 318 524.48 281.36 497 257.51C498.27 257.57 499.7 257.7 501.27 257.92H501.25Z" fill="#645193"/>
<path fill-rule="evenodd" clip-rule="evenodd" d="M576.46 218.87C582.3 233.27 590.92 265.57 601.12 300.33C596.973 318.184 586.79 334.058 572.29 345.27C547.6 310 526.09 270 518.05 238.19C501.89 174.26 552.19 159.03 576.46 218.87Z" fill="#BBBBF6"/>
<path fill-rule="evenodd" clip-rule="evenodd" d="M586.52 331C552.33 271.2 536.4 201 536.33 200.75C536.292 200.587 536.286 200.418 536.312 200.253C536.339 200.088 536.399 199.93 536.487 199.787C536.575 199.645 536.691 199.522 536.827 199.425C536.963 199.327 537.117 199.258 537.28 199.22C537.447 199.183 537.619 199.18 537.787 199.211C537.955 199.241 538.116 199.305 538.259 199.398C538.402 199.491 538.526 199.612 538.622 199.753C538.718 199.894 538.786 200.053 538.82 200.22C538.89 200.52 554.59 269.68 588.17 328.85C587.63 329.59 587.08 330.33 586.52 331.05V331Z" fill="#938ACA"/>
<path fill-rule="evenodd" clip-rule="evenodd" d="M553.49 356.09C552.119 349.742 550.026 343.571 547.25 337.7C535.86 313.78 507.37 304.47 499.25 308.11C492.63 311.11 479.25 329.54 489.25 356.76H551.8C552.37 356.54 552.93 356.33 553.49 356.09Z" fill="#938ACA"/>
<path fill-rule="evenodd" clip-rule="evenodd" d="M537 356.76C538.45 352.85 541.45 344.26 541.84 339.07C541.85 338.975 541.84 338.879 541.812 338.788C541.784 338.697 541.737 338.613 541.676 338.54C541.614 338.467 541.538 338.407 541.453 338.364C541.368 338.322 541.275 338.296 541.18 338.29C540.988 338.276 540.798 338.339 540.652 338.464C540.506 338.59 540.415 338.768 540.4 338.96C540.04 343.8 537.29 351.78 535.81 355.81C532.203 348.728 528.082 341.92 523.48 335.44C525.021 329.738 525.795 323.856 525.78 317.95C525.77 317.757 525.684 317.576 525.542 317.445C525.4 317.315 525.213 317.244 525.02 317.25C524.828 317.258 524.647 317.341 524.516 317.481C524.385 317.622 524.315 317.808 524.32 318C524.346 323.361 523.691 328.704 522.37 333.9C516.337 325.619 509.544 317.919 502.08 310.9C501.941 310.769 501.777 310.666 501.598 310.598C501.419 310.53 501.229 310.498 501.038 310.503C500.846 310.509 500.658 310.552 500.483 310.63C500.309 310.709 500.151 310.821 500.02 310.96C499.889 311.099 499.786 311.263 499.718 311.442C499.65 311.621 499.618 311.811 499.623 312.002C499.629 312.194 499.672 312.382 499.75 312.557C499.829 312.731 499.941 312.889 500.08 313.02C503.98 316.68 507.55 320.4 510.84 324.15C506.909 323.386 502.891 323.164 498.9 323.49C498.801 323.497 498.704 323.523 498.615 323.567C498.526 323.611 498.446 323.672 498.381 323.746C498.315 323.821 498.265 323.908 498.233 324.002C498.201 324.096 498.188 324.196 498.195 324.295C498.202 324.394 498.228 324.491 498.272 324.58C498.316 324.669 498.377 324.749 498.451 324.814C498.526 324.88 498.613 324.93 498.707 324.962C498.801 324.993 498.901 325.007 499 325C503.472 324.66 507.969 324.997 512.34 326C517.122 331.592 521.509 337.51 525.47 343.71C520.27 343.21 507.47 342.37 495.09 344.64C494.899 344.676 494.73 344.786 494.62 344.946C494.511 345.107 494.469 345.304 494.505 345.495C494.541 345.686 494.651 345.855 494.811 345.965C494.972 346.074 495.169 346.116 495.36 346.08C508.6 343.64 522.36 344.82 526.46 345.28C528.9 349.19 531.06 353.04 532.97 356.79L537 356.76Z" fill="#ADA5D8"/>
<path fill-rule="evenodd" clip-rule="evenodd" d="M485.82 52H489.82C490.175 52 490.516 52.1412 490.768 52.3925C491.019 52.6438 491.16 52.9846 491.16 53.34V57.34C491.16 57.6954 491.019 58.0362 490.768 58.2875C490.516 58.5388 490.175 58.68 489.82 58.68H485.82C485.465 58.68 485.124 58.5388 484.872 58.2875C484.621 58.0362 484.48 57.6954 484.48 57.34V53.34C484.48 52.9846 484.621 52.6438 484.872 52.3925C485.124 52.1412 485.465 52 485.82 52Z" fill="#DED8F9"/>
<path fill-rule="evenodd" clip-rule="evenodd" d="M499.54 52H503.54C503.716 52 503.89 52.0347 504.053 52.102C504.215 52.1693 504.363 52.268 504.487 52.3925C504.612 52.5169 504.711 52.6646 504.778 52.8272C504.845 52.9898 504.88 53.164 504.88 53.34V57.34C504.88 57.516 504.845 57.6902 504.778 57.8528C504.711 58.0154 504.612 58.1631 504.487 58.2875C504.363 58.412 504.215 58.5107 504.053 58.578C503.89 58.6453 503.716 58.68 503.54 58.68H499.54C499.364 58.68 499.19 58.6453 499.027 58.578C498.865 58.5107 498.717 58.412 498.592 58.2875C498.468 58.1631 498.369 58.0154 498.302 57.8528C498.235 57.6902 498.2 57.516 498.2 57.34V53.34C498.2 53.164 498.235 52.9898 498.302 52.8272C498.369 52.6646 498.468 52.5169 498.592 52.3925C498.717 52.268 498.865 52.1693 499.027 52.102C499.19 52.0347 499.364 52 499.54 52Z" fill="#DED8F9"/>
<path fill-rule="evenodd" clip-rule="evenodd" d="M513.25 52H517.25C517.605 52 517.946 52.1412 518.197 52.3925C518.449 52.6438 518.59 52.9846 518.59 53.34V57.34C518.59 57.6954 518.449 58.0362 518.197 58.2875C517.946 58.5388 517.605 58.68 517.25 58.68H513.25C512.896 58.6774 512.558 58.535 512.309 58.284C512.06 58.033 511.92 57.6937 511.92 57.34V53.34C511.92 52.9863 512.06 52.647 512.309 52.396C512.558 52.145 512.896 52.0026 513.25 52Z" fill="#DED8F9"/>
<path fill-rule="evenodd" clip-rule="evenodd" d="M527 52H531C531.354 52.0026 531.692 52.145 531.941 52.396C532.19 52.647 532.33 52.9863 532.33 53.34V57.34C532.33 57.6937 532.19 58.033 531.941 58.284C531.692 58.535 531.354 58.6774 531 58.68H527C526.645 58.68 526.304 58.5388 526.052 58.2875C525.801 58.0362 525.66 57.6954 525.66 57.34V53.34C525.66 52.9846 525.801 52.6438 526.052 52.3925C526.304 52.1412 526.645 52 527 52Z" fill="#DED8F9"/>
<path d="M588.49 45.43C588.511 45.2549 588.595 45.0935 588.727 44.9764C588.859 44.8593 589.029 44.7947 589.205 44.7947C589.381 44.7947 589.551 44.8593 589.683 44.9764C589.815 45.0935 589.899 45.2549 589.92 45.43V48.63C589.899 48.805 589.815 48.9664 589.683 49.0835C589.551 49.2006 589.381 49.2653 589.205 49.2653C589.029 49.2653 588.859 49.2006 588.727 49.0835C588.595 48.9664 588.511 48.805 588.49 48.63V45.43ZM583.66 48.03C583.528 47.897 583.454 47.7173 583.454 47.53C583.454 47.3427 583.528 47.1629 583.66 47.03C583.725 46.9634 583.803 46.9106 583.889 46.8745C583.975 46.8384 584.067 46.8199 584.16 46.8199C584.253 46.8199 584.345 46.8384 584.431 46.8745C584.517 46.9106 584.595 46.9634 584.66 47.03L586.92 49.29C587.033 49.4261 587.092 49.5997 587.084 49.7767C587.076 49.9538 587.002 50.1214 586.877 50.2467C586.751 50.372 586.584 50.446 586.407 50.454C586.23 50.462 586.056 50.4035 585.92 50.29L583.66 48.03ZM582.07 53.27C581.97 53.2819 581.869 53.2725 581.774 53.2425C581.678 53.2125 581.59 53.1625 581.515 53.0959C581.439 53.0293 581.379 52.9475 581.338 52.856C581.297 52.7645 581.276 52.6653 581.276 52.565C581.276 52.4646 581.297 52.3654 581.338 52.2739C581.379 52.1824 581.439 52.1006 581.515 52.034C581.59 51.9674 581.678 51.9175 581.774 51.8875C581.869 51.8575 581.97 51.8481 582.07 51.86H585.26C585.433 51.8806 585.592 51.9637 585.707 52.0936C585.822 52.2235 585.886 52.3912 585.886 52.565C585.886 52.7387 585.822 52.9064 585.707 53.0363C585.592 53.1663 585.433 53.2494 585.26 53.27H582.07ZM584.66 58.12C584.597 58.1957 584.519 58.2575 584.43 58.3013C584.342 58.3451 584.245 58.3701 584.147 58.3745C584.048 58.379 583.95 58.3628 583.858 58.3272C583.766 58.2915 583.682 58.237 583.613 58.1673C583.543 58.0975 583.488 58.014 583.453 57.9221C583.417 57.8301 583.401 57.7317 583.405 57.6332C583.41 57.5347 583.435 57.4381 583.479 57.3498C583.522 57.2614 583.584 57.1831 583.66 57.12L585.91 54.86C585.973 54.7842 586.051 54.7225 586.14 54.6786C586.228 54.6348 586.325 54.6099 586.423 54.6054C586.522 54.601 586.62 54.6171 586.712 54.6528C586.804 54.6885 586.888 54.7429 586.957 54.8126C587.027 54.8824 587.082 54.9659 587.117 55.0579C587.153 55.1498 587.169 55.2482 587.165 55.3467C587.16 55.4453 587.135 55.5418 587.091 55.6302C587.047 55.7185 586.986 55.7968 586.91 55.86L584.66 58.12ZM589.92 59.71C589.899 59.885 589.815 60.0464 589.683 60.1635C589.551 60.2806 589.381 60.3453 589.205 60.3453C589.029 60.3453 588.859 60.2806 588.727 60.1635C588.595 60.0464 588.511 59.885 588.49 59.71V56.51C588.511 56.3349 588.595 56.1735 588.727 56.0564C588.859 55.9394 589.029 55.8747 589.205 55.8747C589.381 55.8747 589.551 55.9394 589.683 56.0564C589.815 56.1735 589.899 56.3349 589.92 56.51V59.71ZM594.75 57.11C594.877 57.2453 594.948 57.4242 594.948 57.61C594.948 57.7958 594.877 57.9746 594.75 58.11C594.616 58.2395 594.437 58.3119 594.25 58.3119C594.063 58.3119 593.884 58.2395 593.75 58.11L591.49 55.85C591.414 55.7868 591.352 55.7085 591.309 55.6202C591.265 55.5318 591.24 55.4353 591.235 55.3367C591.231 55.2382 591.247 55.1398 591.283 55.0479C591.318 54.9559 591.373 54.8724 591.443 54.8027C591.512 54.7329 591.596 54.6784 591.688 54.6428C591.78 54.6071 591.878 54.591 591.977 54.5954C592.075 54.5999 592.172 54.6248 592.26 54.6686C592.349 54.7125 592.427 54.7742 592.49 54.85L594.75 57.11ZM596.34 51.86C596.44 51.8481 596.541 51.8575 596.636 51.8875C596.732 51.9175 596.82 51.9674 596.896 52.034C596.971 52.1006 597.031 52.1824 597.072 52.2739C597.113 52.3654 597.134 52.4646 597.134 52.565C597.134 52.6653 597.113 52.7645 597.072 52.856C597.031 52.9475 596.971 53.0293 596.896 53.0959C596.82 53.1625 596.732 53.2125 596.636 53.2425C596.541 53.2725 596.44 53.2819 596.34 53.27H593.14C592.968 53.2494 592.809 53.1663 592.693 53.0363C592.578 52.9064 592.514 52.7387 592.514 52.565C592.514 52.3912 592.578 52.2235 592.693 52.0936C592.809 51.9637 592.968 51.8806 593.14 51.86H596.34ZM593.75 47C593.815 46.9334 593.893 46.8806 593.979 46.8445C594.065 46.8085 594.157 46.7899 594.25 46.7899C594.343 46.7899 594.435 46.8085 594.521 46.8445C594.607 46.8806 594.685 46.9334 594.75 47C594.877 47.1353 594.948 47.3142 594.948 47.5C594.948 47.6858 594.877 47.8646 594.75 48L592.49 50.26C592.354 50.3735 592.18 50.432 592.003 50.424C591.826 50.416 591.659 50.342 591.533 50.2167C591.408 50.0914 591.334 49.9238 591.326 49.7467C591.318 49.5697 591.376 49.3961 591.49 49.26L593.75 47Z" fill="#C9C0ED"/>
<path d="M36.52 171.58C36.52 171.392 36.5948 171.211 36.728 171.078C36.8611 170.945 37.0417 170.87 37.23 170.87C37.4183 170.87 37.5989 170.945 37.7321 171.078C37.8652 171.211 37.94 171.392 37.94 171.58V174.77C37.94 174.958 37.8652 175.139 37.7321 175.272C37.5989 175.405 37.4183 175.48 37.23 175.48C37.0417 175.48 36.8611 175.405 36.728 175.272C36.5948 175.139 36.52 174.958 36.52 174.77V171.58ZM31.69 174.17C31.6235 174.105 31.5707 174.027 31.5346 173.941C31.4985 173.855 31.4799 173.763 31.4799 173.67C31.4799 173.577 31.4985 173.485 31.5346 173.399C31.5707 173.313 31.6235 173.235 31.69 173.17C31.8242 173.04 32.0035 172.968 32.19 172.968C32.3765 172.968 32.5558 173.04 32.69 173.17L34.94 175.43C35.0078 175.494 35.0618 175.572 35.0986 175.658C35.1355 175.744 35.1545 175.836 35.1545 175.93C35.1545 176.024 35.1355 176.116 35.0986 176.202C35.0618 176.288 35.0078 176.366 34.94 176.43C34.807 176.562 34.6273 176.636 34.44 176.636C34.2527 176.636 34.073 176.562 33.94 176.43L31.69 174.17ZM30.1 179.42C29.9117 179.42 29.7311 179.345 29.598 179.212C29.4648 179.079 29.39 178.898 29.39 178.71C29.39 178.522 29.4648 178.341 29.598 178.208C29.7311 178.075 29.9117 178 30.1 178H33.29C33.4783 178 33.6589 178.075 33.7921 178.208C33.9252 178.341 34 178.522 34 178.71C34 178.898 33.9252 179.079 33.7921 179.212C33.6589 179.345 33.4783 179.42 33.29 179.42H30.1ZM32.69 184.26C32.5558 184.39 32.3765 184.462 32.19 184.462C32.0035 184.462 31.8242 184.39 31.69 184.26C31.6235 184.195 31.5707 184.117 31.5346 184.031C31.4985 183.945 31.4799 183.853 31.4799 183.76C31.4799 183.667 31.4985 183.575 31.5346 183.489C31.5707 183.403 31.6235 183.325 31.69 183.26L34 181C34.1326 180.867 34.3125 180.793 34.5 180.793C34.6876 180.793 34.8674 180.867 35 181C35.1326 181.133 35.2071 181.312 35.2071 181.5C35.2071 181.688 35.1326 181.867 35 182L32.69 184.26ZM37.94 185.85C37.94 186.038 37.8652 186.219 37.7321 186.352C37.5989 186.485 37.4183 186.56 37.23 186.56C37.0417 186.56 36.8611 186.485 36.728 186.352C36.5948 186.219 36.52 186.038 36.52 185.85V182.65C36.52 182.462 36.5948 182.281 36.728 182.148C36.8611 182.015 37.0417 181.94 37.23 181.94C37.4183 181.94 37.5989 182.015 37.7321 182.148C37.8652 182.281 37.94 182.462 37.94 182.65V185.85ZM42.78 183.25C42.8558 183.313 42.9175 183.391 42.9614 183.48C43.0052 183.568 43.0301 183.665 43.0346 183.763C43.039 183.862 43.0229 183.96 42.9872 184.052C42.9515 184.144 42.8971 184.228 42.8273 184.297C42.7576 184.367 42.6741 184.422 42.5821 184.457C42.4902 184.493 42.3918 184.509 42.2932 184.505C42.1947 184.5 42.0982 184.475 42.0098 184.431C41.9215 184.388 41.8432 184.326 41.78 184.25L39.52 182C39.4065 181.864 39.348 181.69 39.356 181.513C39.364 181.336 39.4379 181.169 39.5632 181.043C39.6886 180.918 39.8562 180.844 40.0332 180.836C40.2103 180.828 40.3839 180.886 40.52 181L42.78 183.25ZM44.37 178C44.5583 178 44.7389 178.075 44.8721 178.208C45.0052 178.341 45.08 178.522 45.08 178.71C45.08 178.898 45.0052 179.079 44.8721 179.212C44.7389 179.345 44.5583 179.42 44.37 179.42H41.18C41.0868 179.42 40.9945 179.402 40.9083 179.366C40.8222 179.33 40.7439 179.278 40.678 179.212C40.612 179.146 40.5597 179.068 40.5241 178.982C40.4884 178.896 40.47 178.803 40.47 178.71C40.47 178.617 40.4884 178.524 40.5241 178.438C40.5597 178.352 40.612 178.274 40.678 178.208C40.7439 178.142 40.8222 178.09 40.9083 178.054C40.9945 178.018 41.0868 178 41.18 178H44.37ZM41.78 173.16C41.9161 173.047 42.0897 172.988 42.2668 172.996C42.4438 173.004 42.6115 173.078 42.7368 173.203C42.8621 173.329 42.936 173.496 42.944 173.673C42.952 173.85 42.8935 174.024 42.78 174.16L40.52 176.42C40.4568 176.496 40.3786 176.558 40.2902 176.601C40.2018 176.645 40.1053 176.67 40.0068 176.675C39.9083 176.679 39.8099 176.663 39.7179 176.627C39.626 176.592 39.5424 176.537 39.4727 176.467C39.4029 176.398 39.3485 176.314 39.3128 176.222C39.2771 176.13 39.261 176.032 39.2655 175.933C39.2699 175.835 39.2948 175.738 39.3387 175.65C39.3825 175.561 39.4443 175.483 39.52 175.42L41.78 173.16Z" fill="#C9C0ED"/>
<path fill-rule="evenodd" clip-rule="evenodd" d="M8 357.48H630C632.122 357.48 634.157 358.323 635.657 359.823C637.157 361.323 638 363.358 638 365.48C638 367.602 637.157 369.637 635.657 371.137C634.157 372.637 632.122 373.48 630 373.48H603C601.819 373.483 600.687 373.954 599.853 374.79C599.019 375.626 598.55 376.759 598.55 377.94C598.555 379.119 599.026 380.247 599.859 381.081C600.693 381.914 601.821 382.385 603 382.39H612.89C614.366 382.393 615.782 382.98 616.826 384.024C617.87 385.068 618.457 386.484 618.46 387.96C618.455 389.434 617.866 390.845 616.822 391.886C615.778 392.926 614.364 393.51 612.89 393.51H26C24.5365 393.505 23.1339 392.924 22.0954 391.893C21.0568 390.862 20.4658 389.463 20.45 388C20.45 386.525 21.0337 385.11 22.0737 384.065C23.1137 383.019 24.5253 382.428 26 382.42H33.8C34.9752 382.417 36.1021 381.952 36.9368 381.125C37.7715 380.298 38.2469 379.175 38.26 378C38.2574 376.818 37.7866 375.685 36.9508 374.849C36.1149 374.013 34.9821 373.543 33.8 373.54H8C5.87827 373.54 3.84344 372.697 2.34315 371.197C0.842856 369.697 0 367.662 0 365.54C0 363.418 0.842856 361.383 2.34315 359.883C3.84344 358.383 5.87827 357.54 8 357.54V357.48ZM12.17 393.54C10.7546 393.537 9.39784 392.974 8.39697 391.973C7.3961 390.972 6.83264 389.615 6.83 388.2V387.76C6.83527 386.345 7.39957 384.99 8.39987 383.99C9.40018 382.99 10.7554 382.425 12.17 382.42C13.5872 382.42 14.9465 382.982 15.9495 383.983C16.9525 384.985 17.5173 386.343 17.52 387.76V388.2C17.5173 389.617 16.9525 390.975 15.9495 391.977C14.9465 392.978 13.5872 393.54 12.17 393.54Z" fill="#31275B"/>
</svg>
