<svg width="237" height="27" viewBox="0 0 237 27" fill="none" xmlns="http://www.w3.org/2000/svg">
<path d="M13.076 26.324C10.628 26.324 8.48 25.796 6.632 24.74C4.808 23.684 3.404 22.172 2.42 20.204C1.436 18.236 0.944 15.932 0.944 13.292C0.944 10.652 1.436 8.36 2.42 6.416C3.404 4.448 4.808 2.936 6.632 1.88C8.48 0.823999 10.628 0.295998 13.076 0.295998C14.66 0.295998 16.148 0.535999 17.54 1.016C18.932 1.472 20.168 2.144 21.248 3.032C21.56 3.272 21.776 3.524 21.896 3.788C22.016 4.052 22.076 4.376 22.076 4.76C22.076 5.288 21.932 5.732 21.644 6.092C21.356 6.452 21.008 6.632 20.6 6.632C20.12 6.632 19.628 6.464 19.124 6.128C18.092 5.36 17.132 4.832 16.244 4.544C15.356 4.232 14.372 4.076 13.292 4.076C10.796 4.076 8.9 4.856 7.604 6.416C6.332 7.976 5.696 10.268 5.696 13.292C5.696 16.34 6.332 18.644 7.604 20.204C8.9 21.764 10.796 22.544 13.292 22.544C14.324 22.544 15.272 22.388 16.136 22.076C17.024 21.764 18.02 21.236 19.124 20.492C19.364 20.348 19.604 20.228 19.844 20.132C20.084 20.036 20.336 19.988 20.6 19.988C21.008 19.988 21.356 20.168 21.644 20.528C21.932 20.888 22.076 21.332 22.076 21.86C22.076 22.22 22.016 22.544 21.896 22.832C21.776 23.096 21.56 23.348 21.248 23.588C20.168 24.476 18.932 25.16 17.54 25.64C16.148 26.096 14.66 26.324 13.076 26.324ZM36.0344 7.964C40.1624 7.964 42.2264 10.376 42.2264 15.2V24.056C42.2264 24.728 42.0224 25.256 41.6144 25.64C41.2304 26.024 40.6904 26.216 39.9944 26.216C39.2984 26.216 38.7464 26.024 38.3384 25.64C37.9304 25.256 37.7264 24.728 37.7264 24.056V15.2C37.7264 13.928 37.4624 13.004 36.9344 12.428C36.4304 11.828 35.6264 11.528 34.5224 11.528C33.2264 11.528 32.1824 11.936 31.3904 12.752C30.6224 13.568 30.2384 14.66 30.2384 16.028V24.056C30.2384 24.728 30.0344 25.256 29.6264 25.64C29.2184 26.024 28.6664 26.216 27.9704 26.216C27.2744 26.216 26.7224 26.024 26.3144 25.64C25.9304 25.256 25.7384 24.728 25.7384 24.056V2.528C25.7384 1.904 25.9424 1.4 26.3504 1.016C26.7824 0.631999 27.3344 0.439999 28.0064 0.439999C28.6784 0.439999 29.2184 0.619998 29.6264 0.979998C30.0344 1.34 30.2384 1.832 30.2384 2.456V10.844C30.8384 9.908 31.6304 9.2 32.6144 8.72C33.6224 8.216 34.7624 7.964 36.0344 7.964ZM60.729 21.176C61.137 21.176 61.461 21.332 61.701 21.644C61.965 21.956 62.097 22.376 62.097 22.904C62.097 23.648 61.653 24.272 60.765 24.776C59.949 25.232 59.025 25.604 57.993 25.892C56.961 26.156 55.977 26.288 55.041 26.288C52.209 26.288 49.965 25.472 48.309 23.84C46.653 22.208 45.825 19.976 45.825 17.144C45.825 15.344 46.185 13.748 46.905 12.356C47.625 10.964 48.633 9.884 49.929 9.116C51.249 8.348 52.737 7.964 54.393 7.964C55.977 7.964 57.357 8.312 58.533 9.008C59.709 9.704 60.621 10.688 61.269 11.96C61.917 13.232 62.241 14.732 62.241 16.46C62.241 17.492 61.785 18.008 60.873 18.008H50.253C50.397 19.664 50.865 20.888 51.657 21.68C52.449 22.448 53.601 22.832 55.113 22.832C55.881 22.832 56.553 22.736 57.129 22.544C57.729 22.352 58.401 22.088 59.145 21.752C59.865 21.368 60.393 21.176 60.729 21.176ZM54.501 11.132C53.277 11.132 52.293 11.516 51.549 12.284C50.829 13.052 50.397 14.156 50.253 15.596H58.389C58.341 14.132 57.981 13.028 57.309 12.284C56.637 11.516 55.701 11.132 54.501 11.132ZM73.734 26.288C71.982 26.288 70.434 25.916 69.09 25.172C67.77 24.428 66.75 23.372 66.03 22.004C65.31 20.636 64.95 19.04 64.95 17.216C64.95 15.392 65.322 13.784 66.066 12.392C66.834 10.976 67.902 9.884 69.27 9.116C70.638 8.348 72.21 7.964 73.986 7.964C74.922 7.964 75.858 8.096 76.794 8.36C77.754 8.624 78.594 8.984 79.314 9.44C80.082 9.944 80.466 10.58 80.466 11.348C80.466 11.876 80.334 12.308 80.07 12.644C79.83 12.956 79.506 13.112 79.098 13.112C78.834 13.112 78.558 13.052 78.27 12.932C77.982 12.812 77.694 12.668 77.406 12.5C76.878 12.188 76.374 11.948 75.894 11.78C75.414 11.588 74.862 11.492 74.238 11.492C72.75 11.492 71.598 11.984 70.782 12.968C69.99 13.928 69.594 15.32 69.594 17.144C69.594 18.944 69.99 20.336 70.782 21.32C71.598 22.28 72.75 22.76 74.238 22.76C74.838 22.76 75.366 22.676 75.822 22.508C76.302 22.316 76.83 22.064 77.406 21.752C77.766 21.536 78.078 21.38 78.342 21.284C78.606 21.164 78.87 21.104 79.134 21.104C79.518 21.104 79.842 21.272 80.106 21.608C80.37 21.944 80.502 22.364 80.502 22.868C80.502 23.276 80.406 23.636 80.214 23.948C80.046 24.236 79.758 24.5 79.35 24.74C78.606 25.22 77.742 25.604 76.758 25.892C75.774 26.156 74.766 26.288 73.734 26.288ZM99.1602 22.508C99.6402 22.964 99.8802 23.48 99.8802 24.056C99.8802 24.608 99.6762 25.1 99.2682 25.532C98.8842 25.964 98.4282 26.18 97.9002 26.18C97.3722 26.18 96.8802 25.964 96.4242 25.532L88.0002 17.9V24.056C88.0002 24.752 87.7842 25.28 87.3522 25.64C86.9202 26 86.3802 26.18 85.7322 26.18C85.0842 26.18 84.5442 26 84.1122 25.64C83.7042 25.28 83.5002 24.752 83.5002 24.056V2.564C83.5002 1.868 83.7042 1.34 84.1122 0.979998C84.5442 0.619998 85.0842 0.439999 85.7322 0.439999C86.3802 0.439999 86.9202 0.619998 87.3522 0.979998C87.7842 1.34 88.0002 1.868 88.0002 2.564V16.1L95.7042 8.72C96.1362 8.288 96.6282 8.072 97.1802 8.072C97.7322 8.072 98.2122 8.276 98.6202 8.684C99.0282 9.092 99.2322 9.572 99.2322 10.124C99.2322 10.676 99.0042 11.18 98.5482 11.636L92.8962 16.892L99.1602 22.508ZM114.806 26.216C114.158 26.216 113.618 26.036 113.186 25.676C112.778 25.292 112.574 24.752 112.574 24.056V10.16C112.574 9.464 112.778 8.936 113.186 8.576C113.618 8.216 114.158 8.036 114.806 8.036C115.454 8.036 115.994 8.216 116.426 8.576C116.858 8.936 117.074 9.464 117.074 10.16V24.056C117.074 24.752 116.858 25.292 116.426 25.676C115.994 26.036 115.454 26.216 114.806 26.216ZM114.806 4.832C113.99 4.832 113.342 4.616 112.862 4.184C112.382 3.728 112.142 3.14 112.142 2.42C112.142 1.7 112.382 1.124 112.862 0.692C113.342 0.26 113.99 0.0439994 114.806 0.0439994C115.598 0.0439994 116.234 0.26 116.714 0.692C117.218 1.124 117.47 1.7 117.47 2.42C117.47 3.14 117.23 3.728 116.75 4.184C116.27 4.616 115.622 4.832 114.806 4.832ZM131.632 22.868C132.832 22.94 133.432 23.48 133.432 24.488C133.432 25.064 133.192 25.508 132.712 25.82C132.256 26.108 131.596 26.228 130.732 26.18L129.76 26.108C125.728 25.82 123.712 23.66 123.712 19.628V11.78H121.912C121.264 11.78 120.76 11.636 120.4 11.348C120.064 11.06 119.896 10.64 119.896 10.088C119.896 9.536 120.064 9.116 120.4 8.828C120.76 8.54 121.264 8.396 121.912 8.396H123.712V5.084C123.712 4.436 123.916 3.92 124.324 3.536C124.732 3.152 125.284 2.96 125.98 2.96C126.652 2.96 127.192 3.152 127.6 3.536C128.008 3.92 128.212 4.436 128.212 5.084V8.396H131.272C131.92 8.396 132.412 8.54 132.748 8.828C133.108 9.116 133.288 9.536 133.288 10.088C133.288 10.64 133.108 11.06 132.748 11.348C132.412 11.636 131.92 11.78 131.272 11.78H128.212V19.952C128.212 21.728 129.028 22.676 130.66 22.796L131.632 22.868ZM165.171 0.439999C165.843 0.439999 166.371 0.655999 166.755 1.088C167.163 1.496 167.367 2.048 167.367 2.744V23.876C167.367 24.572 167.163 25.136 166.755 25.568C166.347 26 165.819 26.216 165.171 26.216C164.403 26.216 163.815 25.94 163.407 25.388L150.267 8.288V23.876C150.267 24.572 150.075 25.136 149.691 25.568C149.307 26 148.779 26.216 148.107 26.216C147.435 26.216 146.907 26 146.523 25.568C146.139 25.136 145.947 24.572 145.947 23.876V2.744C145.947 2.048 146.151 1.496 146.559 1.088C146.967 0.655999 147.507 0.439999 148.179 0.439999C148.923 0.439999 149.499 0.715999 149.907 1.268L163.011 18.296V2.744C163.011 2.048 163.203 1.496 163.587 1.088C163.995 0.655999 164.523 0.439999 165.171 0.439999ZM184.145 26.324C181.673 26.324 179.525 25.796 177.701 24.74C175.901 23.684 174.509 22.172 173.525 20.204C172.541 18.236 172.049 15.932 172.049 13.292C172.049 10.652 172.529 8.36 173.489 6.416C174.473 4.448 175.877 2.936 177.701 1.88C179.525 0.823999 181.673 0.295998 184.145 0.295998C186.617 0.295998 188.753 0.823999 190.553 1.88C192.377 2.936 193.769 4.448 194.729 6.416C195.713 8.36 196.205 10.652 196.205 13.292C196.205 15.932 195.713 18.236 194.729 20.204C193.745 22.172 192.341 23.684 190.517 24.74C188.717 25.796 186.593 26.324 184.145 26.324ZM184.145 22.616C186.473 22.616 188.285 21.812 189.581 20.204C190.901 18.596 191.561 16.292 191.561 13.292C191.561 10.292 190.901 8 189.581 6.416C188.285 4.808 186.473 4.004 184.145 4.004C181.793 4.004 179.957 4.808 178.637 6.416C177.341 8 176.693 10.292 176.693 13.292C176.693 16.292 177.341 18.596 178.637 20.204C179.957 21.812 181.793 22.616 184.145 22.616ZM232.087 1.844C232.255 1.364 232.519 1.004 232.879 0.763999C233.263 0.523999 233.683 0.403999 234.139 0.403999C234.715 0.403999 235.207 0.583999 235.615 0.943999C236.047 1.304 236.263 1.784 236.263 2.384C236.263 2.6 236.203 2.912 236.083 3.32L228.343 24.74C228.151 25.22 227.827 25.592 227.371 25.856C226.939 26.12 226.459 26.252 225.931 26.252C225.403 26.252 224.911 26.12 224.455 25.856C223.999 25.592 223.687 25.22 223.519 24.74L217.543 7.784L211.459 24.74C211.267 25.22 210.943 25.592 210.487 25.856C210.055 26.12 209.575 26.252 209.047 26.252C208.519 26.252 208.027 26.12 207.571 25.856C207.139 25.592 206.839 25.22 206.671 24.74L198.931 3.32C198.811 2.96 198.751 2.648 198.751 2.384C198.751 1.784 198.967 1.304 199.399 0.943999C199.855 0.583999 200.383 0.403999 200.983 0.403999C201.463 0.403999 201.895 0.523999 202.279 0.763999C202.663 1.004 202.939 1.364 203.107 1.844L209.227 19.448L215.527 1.952C215.695 1.472 215.971 1.1 216.355 0.835998C216.739 0.547999 217.159 0.403999 217.615 0.403999C218.071 0.403999 218.491 0.547999 218.875 0.835998C219.283 1.1 219.571 1.484 219.739 1.988L225.859 19.664L232.087 1.844Z" fill="#556A9E"/>
</svg>
