<svg width="17" height="20" viewBox="0 0 17 20" fill="none" xmlns="http://www.w3.org/2000/svg">
<path d="M15.2942 16.3261C15.2942 17.1045 14.9596 17.851 14.3639 18.4013C13.7682 18.9517 12.9602 19.2609 12.1178 19.2609H4.706C3.86355 19.2609 3.0556 18.9517 2.45989 18.4013C1.86419 17.851 1.52953 17.1045 1.52953 16.3261V4.58699H0.470703V1.65221H5.23541L6.29423 0.67395H10.5295L11.5884 1.65221H16.3531V4.58699H15.2942V16.3261ZM2.58835 4.58699V16.3261C2.58835 16.845 2.81146 17.3427 3.2086 17.7096C3.60573 18.0765 4.14436 18.2826 4.706 18.2826H12.1178C12.6794 18.2826 13.218 18.0765 13.6152 17.7096C14.0123 17.3427 14.2354 16.845 14.2354 16.3261V4.58699H2.58835ZM15.2942 3.60873V2.63047H11.0589L10.0001 1.65221H6.82365L5.76482 2.63047H1.52953V3.60873H15.2942ZM4.706 6.54352H5.76482V16.3261H4.706V6.54352ZM11.0589 6.54352H12.1178V16.3261H11.0589V6.54352Z" fill="black"/>
</svg>
