<svg width="17" height="17" viewBox="0 0 17 17" fill="none" xmlns="http://www.w3.org/2000/svg">
<path d="M8.223 1.516C9.20791 1.516 10.1832 1.70999 11.0931 2.0869C12.0031 2.46381 12.8299 3.01626 13.5263 3.7127C14.2227 4.40914 14.7752 5.23593 15.1521 6.14587C15.529 7.05582 15.723 8.03109 15.723 9.016C15.723 10.0009 15.529 10.9762 15.1521 11.8861C14.7752 12.7961 14.2227 13.6229 13.5263 14.3193C12.8299 15.0157 12.0031 15.5682 11.0931 15.9451C10.1832 16.322 9.20791 16.516 8.223 16.516C6.23388 16.516 4.32622 15.7258 2.9197 14.3193C1.51318 12.9128 0.723 11.0051 0.723 9.016C0.723 7.02688 1.51318 5.11922 2.9197 3.7127C4.32622 2.30618 6.23388 1.516 8.223 1.516ZM8.223 2.516C6.49909 2.516 4.84579 3.20082 3.62681 4.41981C2.40782 5.63879 1.723 7.29209 1.723 9.016C1.723 10.7399 2.40782 12.3932 3.62681 13.6122C4.84579 14.8312 6.49909 15.516 8.223 15.516C9.94691 15.516 11.6002 14.8312 12.8192 13.6122C14.0382 12.3932 14.723 10.7399 14.723 9.016C14.723 7.29209 14.0382 5.63879 12.8192 4.41981C11.6002 3.20082 9.94691 2.516 8.223 2.516ZM7.723 4.516H8.723V8.879L11.771 10.3L11.348 11.206L7.723 9.516V4.516ZM11.973 0.766L12.616 0L16.446 3.214L15.803 3.98L11.973 0.766ZM4.473 0.766L0.643 3.98L0 3.214L3.83 0L4.473 0.766Z" fill="black"/>
</svg>
