<svg width="19" height="18" viewBox="0 0 19 18" fill="none" xmlns="http://www.w3.org/2000/svg">
<path d="M18.3367 4.62804L15.8676 6.90934L11.897 3.24086L14.3662 0.959557C14.4644 0.868631 14.5811 0.796497 14.7095 0.74728C14.838 0.698063 14.9757 0.672729 15.1147 0.672729C15.2538 0.672729 15.3915 0.698063 15.5199 0.74728C15.6484 0.796497 15.7651 0.868631 15.8633 0.959557L18.3367 3.24477C18.4352 3.33554 18.5132 3.44335 18.5665 3.56203C18.6198 3.68071 18.6472 3.80793 18.6472 3.9364C18.6472 4.06488 18.6198 4.1921 18.5665 4.31078C18.5132 4.42946 18.4352 4.53726 18.3367 4.62804ZM0.646973 13.6339L11.304 3.78869L15.2746 7.45717L4.61756 17.3024H0.648031V13.6339H0.646973ZM15.0703 1.69521L13.4397 3.20075L15.9141 5.48499L17.5426 3.97945L15.0703 1.69521ZM13.7319 7.50119L11.2596 5.21597L1.70685 14.0409V16.3261H4.18027L13.7319 7.50119Z" fill="black"/>
</svg>
