<svg width="4" height="16" viewBox="0 0 4 16" fill="none" xmlns="http://www.w3.org/2000/svg">
<path d="M2 12C2.53043 12 3.03914 12.2107 3.41421 12.5858C3.78929 12.9609 4 13.4696 4 14C4 14.5304 3.78929 15.0391 3.41421 15.4142C3.03914 15.7893 2.53043 16 2 16C1.46957 16 0.96086 15.7893 0.585787 15.4142C0.210714 15.0391 0 14.5304 0 14C0 13.4696 0.210714 12.9609 0.585787 12.5858C0.96086 12.2107 1.46957 12 2 12ZM2 6C2.53043 6 3.03914 6.21071 3.41421 6.58579C3.78929 6.96086 4 7.46957 4 8C4 8.53043 3.78929 9.03914 3.41421 9.41421C3.03914 9.78929 2.53043 10 2 10C1.46957 10 0.96086 9.78929 0.585787 9.41421C0.210714 9.03914 0 8.53043 0 8C0 7.46957 0.210714 6.96086 0.585787 6.58579C0.96086 6.21071 1.46957 6 2 6ZM2 0C2.53043 0 3.03914 0.210714 3.41421 0.585786C3.78929 0.960859 4 1.46957 4 2C4 2.53043 3.78929 3.03914 3.41421 3.41421C3.03914 3.78929 2.53043 4 2 4C1.46957 4 0.96086 3.78929 0.585787 3.41421C0.210714 3.03914 0 2.53043 0 2C0 1.46957 0.210714 0.960859 0.585787 0.585786C0.96086 0.210714 1.46957 0 2 0ZM2 1C1.73478 1 1.48043 1.10536 1.29289 1.29289C1.10536 1.48043 1 1.73478 1 2C1 2.26522 1.10536 2.51957 1.29289 2.70711C1.48043 2.89464 1.73478 3 2 3C2.26522 3 2.51957 2.89464 2.70711 2.70711C2.89464 2.51957 3 2.26522 3 2C3 1.73478 2.89464 1.48043 2.70711 1.29289C2.51957 1.10536 2.26522 1 2 1ZM2 7C1.73478 7 1.48043 7.10536 1.29289 7.29289C1.10536 7.48043 1 7.73478 1 8C1 8.26522 1.10536 8.51957 1.29289 8.70711C1.48043 8.89464 1.73478 9 2 9C2.26522 9 2.51957 8.89464 2.70711 8.70711C2.89464 8.51957 3 8.26522 3 8C3 7.73478 2.89464 7.48043 2.70711 7.29289C2.51957 7.10536 2.26522 7 2 7ZM2 13C1.73478 13 1.48043 13.1054 1.29289 13.2929C1.10536 13.4804 1 13.7348 1 14C1 14.2652 1.10536 14.5196 1.29289 14.7071C1.48043 14.8946 1.73478 15 2 15C2.26522 15 2.51957 14.8946 2.70711 14.7071C2.89464 14.5196 3 14.2652 3 14C3 13.7348 2.89464 13.4804 2.70711 13.2929C2.51957 13.1054 2.26522 13 2 13Z" fill="black"/>
</svg>
